<svg version="1.1" xmlns="http://www.w3.org/2000/svg" viewBox="0 0 1121.1848838405958 1262.9859035763143" width="1121.1848838405958" height="1262.9859035763143" filter="invert(93%) hue-rotate(180deg)">
  <!-- svg-source:excalidraw -->
  
  <defs>
    <style class="style-fonts">
      @font-face {
        font-family: "Virgil";
        src: url("https://excalidraw.com/Virgil.woff2");
      }
      @font-face {
        font-family: "Cascadia";
        src: url("https://excalidraw.com/Cascadia.woff2");
      }
    </style>
    
  </defs>
  <rect x="0" y="0" width="1121.1848838405958" height="1262.9859035763143" fill="#ffffff"></rect><g stroke-linecap="round"><g transform="translate(404.9999999999998 12.914952449963096) rotate(0 -0.22998464860137346 363.37338000544344)"><path d="M-1.06 1.14 C-0.89 121.97, -0.13 604.08, 0.09 724.68 M0.59 0.69 C0.69 121.72, -0.64 605.17, -0.81 726.05" stroke="#1e1e1e" stroke-width="1" fill="none"></path></g></g><mask></mask><g stroke-linecap="round"><g transform="translate(518.333333333333 11.248285783296467) rotate(0 -0.11235692631919392 353.09381344655367)"><path d="M1.2 -0.13 C1.04 117.69, -0.02 589.5, -0.31 707.44 M0.37 -1.25 C-0.03 116.19, -1.1 587.91, -1.42 705.72" stroke="#1e1e1e" stroke-width="1" fill="none"></path></g></g><mask></mask><g stroke-linecap="round"><g transform="translate(633.3333333333325 12.914952449963096) rotate(0 0.08306057848744786 347.02845388012474)"><path d="M0.77 -0.15 C0.69 115.55, -1.01 579.66, -1.01 695.33 M-0.28 -1.27 C0.05 114.56, 1.06 577.4, 1.17 693.38" stroke="#1e1e1e" stroke-width="1" fill="none"></path></g></g><mask></mask><g stroke-linecap="round"><g transform="translate(753.3333333333325 12.914952449963096) rotate(0 -0.43025768487996174 353.7803734406674)"><path d="M0.64 0.82 C0.72 118.56, -0.42 588.61, -0.35 706.11 M-0.48 0.21 C-0.52 118.13, -1.71 589.61, -1.48 707.35" stroke="#1e1e1e" stroke-width="1" fill="none"></path></g></g><mask></mask><g stroke-linecap="round"><g transform="translate(876.666666666666 12.914952449963096) rotate(0 0.40332884229394494 357.31470537421444)"><path d="M1.17 1.04 C0.97 119.99, -0.56 595.45, -0.76 714.1 M0.32 0.53 C0.47 119.12, 1.74 593.46, 1.55 712.37" stroke="#1e1e1e" stroke-width="1" fill="none"></path></g></g><mask></mask><g stroke-linecap="round"><g transform="translate(1009.999999999999 12.914952449963096) rotate(0 0.4999914045405376 349.93592812316956)"><path d="M0.89 0.09 C1.11 116.77, 1.23 584.01, 0.93 700.79 M-0.11 -0.91 C0.07 115.38, 0.2 582.46, 0.47 699.07" stroke="#1e1e1e" stroke-width="1" fill="none"></path></g></g><mask></mask><g stroke-linecap="round"><g transform="translate(298.33333333333326 102.91495244996315) rotate(0 360.1274634266411 -0.38987419676128354)"><path d="M0.96 -0.19 C120.96 -0.15, 600.3 0.5, 720.25 0.67 M0 -1.34 C119.85 -1.69, 599.4 -1.14, 719.43 -1.09" stroke="#1e1e1e" stroke-width="1" fill="none"></path></g></g><mask></mask><g stroke-linecap="round"><g transform="translate(298.33333333333326 212.91495244996315) rotate(0 360.3627524984395 -0.2354661740362758)"><path d="M1.15 0.47 C121.25 0.2, 600.62 -0.81, 720.43 -0.94 M0.3 -0.32 C120.29 -0.54, 599.88 -0.09, 719.7 0.1" stroke="#1e1e1e" stroke-width="1" fill="none"></path></g></g><mask></mask><g stroke-linecap="round"><g transform="translate(298.33333333333326 327.91495244996315) rotate(0 360.15485832318655 0.8046255491742897)"><path d="M-0.42 0.6 C119.75 0.73, 600.62 0.42, 720.73 0.13 M1.55 -0.13 C121.66 0.27, 600.49 1.78, 720.17 1.74" stroke="#1e1e1e" stroke-width="1" fill="none"></path></g></g><mask></mask><g stroke-linecap="round"><g transform="translate(298.33333333333326 447.91495244996315) rotate(0 359.52079104557623 -0.01025513053667737)"><path d="M-1.06 -1.07 C118.82 -1.27, 599.78 -0.38, 720.1 -0.32 M0.59 0.98 C120.25 0.88, 599.22 1.17, 719.2 1.05" stroke="#1e1e1e" stroke-width="1" fill="none"></path></g></g><mask></mask><g stroke-linecap="round"><g transform="translate(298.33333333333326 567.9149524499633) rotate(0 359.8207694493234 0.7980952961091248)"><path d="M-0.4 0.56 C119.77 0.43, 599.86 0.2, 720.04 0.16 M1.6 -0.19 C121.7 -0.19, 599.33 1.45, 719.11 1.78" stroke="#1e1e1e" stroke-width="1" fill="none"></path></g></g><mask></mask><g stroke-linecap="round"><g transform="translate(298.33333333333326 682.9149524499633) rotate(0 360.10905596110496 0.000326455815297777)"><path d="M0.83 1.01 C120.87 1.27, 600.58 0.68, 720.41 0.69 M-0.19 0.49 C119.72 0.49, 599.82 -0.87, 719.67 -1.08" stroke="#1e1e1e" stroke-width="1" fill="none"></path></g></g><mask></mask><g transform="translate(456.6666666666663 31.24828578329641) rotate(0 4.877998352050781 22.5)"><text x="0" y="0" font-family="Virgil, Segoe UI Emoji" font-size="36px" fill="#1e1e1e" text-anchor="start" style="white-space: pre;" direction="ltr" dominant-baseline="text-before-edge">1</text></g><g transform="translate(564.9999999999995 31.24828578329641) rotate(0 12.815994262695312 22.5)"><text x="0" y="0" font-family="Virgil, Segoe UI Emoji" font-size="36px" fill="#1e1e1e" text-anchor="start" style="white-space: pre;" direction="ltr" dominant-baseline="text-before-edge">2</text></g><g transform="translate(676.6666666666664 21.24828578329641) rotate(0 14.795997619628906 22.5)"><text x="0" y="0" font-family="Virgil, Segoe UI Emoji" font-size="36px" fill="#1e1e1e" text-anchor="start" style="white-space: pre;" direction="ltr" dominant-baseline="text-before-edge">...</text></g><g transform="translate(793.3333333333329 29.58161911662978) rotate(0 22.48199462890625 22.5)"><text x="0" y="0" font-family="Virgil, Segoe UI Emoji" font-size="36px" fill="#1e1e1e" text-anchor="start" style="white-space: pre;" direction="ltr" dominant-baseline="text-before-edge">49</text></g><g transform="translate(924.9999999999999 27.91495244996304) rotate(0 23.50798797607422 22.5)"><text x="0" y="0" font-family="Virgil, Segoe UI Emoji" font-size="36px" fill="#1e1e1e" text-anchor="start" style="white-space: pre;" direction="ltr" dominant-baseline="text-before-edge">50</text></g><g transform="translate(341.6666666666663 134.58161911662978) rotate(0 4.877998352050781 22.5)"><text x="0" y="0" font-family="Virgil, Segoe UI Emoji" font-size="36px" fill="#1e1e1e" text-anchor="start" style="white-space: pre;" direction="ltr" dominant-baseline="text-before-edge">1</text></g><g transform="translate(334.9999999999998 242.91495244996304) rotate(0 12.815994262695312 22.5)"><text x="0" y="0" font-family="Virgil, Segoe UI Emoji" font-size="36px" fill="#1e1e1e" text-anchor="start" style="white-space: pre;" direction="ltr" dominant-baseline="text-before-edge">2</text></g><g transform="translate(334.9999999999998 361.2482857832963) rotate(0 14.795997619628906 22.5)"><text x="0" y="0" font-family="Virgil, Segoe UI Emoji" font-size="36px" fill="#1e1e1e" text-anchor="start" style="white-space: pre;" direction="ltr" dominant-baseline="text-before-edge">...</text></g><g transform="translate(326.66666666666606 487.91495244996304) rotate(0 22.48199462890625 22.5)"><text x="0" y="0" font-family="Virgil, Segoe UI Emoji" font-size="36px" fill="#1e1e1e" text-anchor="start" style="white-space: pre;" direction="ltr" dominant-baseline="text-before-edge">49</text></g><g transform="translate(328.33333333333326 607.914952449963) rotate(0 23.50798797607422 22.5)"><text x="0" y="0" font-family="Virgil, Segoe UI Emoji" font-size="36px" fill="#1e1e1e" text-anchor="start" style="white-space: pre;" direction="ltr" dominant-baseline="text-before-edge">50</text></g><g transform="translate(453.33333333333303 137.91495244996298) rotate(0 12.383995056152344 22.5)"><text x="0" y="0" font-family="Virgil, Segoe UI Emoji" font-size="36px" fill="#1e1e1e" text-anchor="start" style="white-space: pre;" direction="ltr" dominant-baseline="text-before-edge">0</text></g><g transform="translate(573.333333333333 132.91495244996287) rotate(0 4.877998352050781 22.5)"><text x="0" y="0" font-family="Virgil, Segoe UI Emoji" font-size="36px" fill="#1e1e1e" text-anchor="start" style="white-space: pre;" direction="ltr" dominant-baseline="text-before-edge">1</text></g><g transform="translate(674.9999999999994 122.9149524499631) rotate(0 14.795997619628906 22.5)"><text x="0" y="0" font-family="Virgil, Segoe UI Emoji" font-size="36px" fill="#1e1e1e" text-anchor="start" style="white-space: pre;" direction="ltr" dominant-baseline="text-before-edge">...</text></g><g transform="translate(793.3333333333331 132.91495244996287) rotate(0 25.289993286132812 22.5)"><text x="0" y="0" font-family="Virgil, Segoe UI Emoji" font-size="36px" fill="#1e1e1e" text-anchor="start" style="white-space: pre;" direction="ltr" dominant-baseline="text-before-edge">48</text></g><g transform="translate(926.6666666666666 131.24828578329613) rotate(0 22.48199462890625 22.5)"><text x="0" y="0" font-family="Virgil, Segoe UI Emoji" font-size="36px" fill="#1e1e1e" text-anchor="start" style="white-space: pre;" direction="ltr" dominant-baseline="text-before-edge">49</text></g><g transform="translate(441.66666666666674 249.58161911662967) rotate(0 23.50798797607422 22.5)"><text x="0" y="0" font-family="Virgil, Segoe UI Emoji" font-size="36px" fill="#1e1e1e" text-anchor="start" style="white-space: pre;" direction="ltr" dominant-baseline="text-before-edge">50</text></g><g transform="translate(448.33333333333303 361.2482857832964) rotate(0 14.795997619628906 22.5)"><text x="0" y="0" font-family="Virgil, Segoe UI Emoji" font-size="36px" fill="#1e1e1e" text-anchor="start" style="white-space: pre;" direction="ltr" dominant-baseline="text-before-edge">...</text></g><g transform="translate(411.66666666666674 492.9149524499629) rotate(0 49.103981018066406 22.5)"><text x="0" y="0" font-family="Virgil, Segoe UI Emoji" font-size="36px" fill="#1e1e1e" text-anchor="start" style="white-space: pre;" direction="ltr" dominant-baseline="text-before-edge">2400</text></g><g transform="translate(411.66666666666674 609.5816191166296) rotate(0 47.84397888183594 22.5)"><text x="0" y="0" font-family="Virgil, Segoe UI Emoji" font-size="36px" fill="#1e1e1e" text-anchor="start" style="white-space: pre;" direction="ltr" dominant-baseline="text-before-edge">2450</text></g><g transform="translate(895.0000000000001 606.2482857832963) rotate(0 46.259986877441406 22.5)"><text x="0" y="0" font-family="Virgil, Segoe UI Emoji" font-size="36px" fill="#1e1e1e" text-anchor="start" style="white-space: pre;" direction="ltr" dominant-baseline="text-before-edge">2499</text></g><g transform="translate(899.9999999999999 492.9149524499629) rotate(0 46.81798553466797 22.5)"><text x="0" y="0" font-family="Virgil, Segoe UI Emoji" font-size="36px" fill="#1e1e1e" text-anchor="start" style="white-space: pre;" direction="ltr" dominant-baseline="text-before-edge">2449</text></g><g transform="translate(924.9999999999999 249.58161911662967) rotate(0 21.923995971679688 22.5)"><text x="0" y="0" font-family="Virgil, Segoe UI Emoji" font-size="36px" fill="#1e1e1e" text-anchor="start" style="white-space: pre;" direction="ltr" dominant-baseline="text-before-edge">99</text></g><g transform="translate(928.3333333333325 354.5816191166297) rotate(0 14.795997619628906 22.49999999999997)"><text x="0" y="0" font-family="Virgil, Segoe UI Emoji" font-size="36px" fill="#1e1e1e" text-anchor="start" style="white-space: pre;" direction="ltr" dominant-baseline="text-before-edge">...</text></g><g transform="translate(791.6666666666662 247.91495244996287) rotate(0 24.73199462890625 22.5)"><text x="0" y="0" font-family="Virgil, Segoe UI Emoji" font-size="36px" fill="#1e1e1e" text-anchor="start" style="white-space: pre;" direction="ltr" dominant-baseline="text-before-edge">98</text></g><g transform="translate(676.666666666666 239.58161911662972) rotate(0 14.795997619628906 22.5)"><text x="0" y="0" font-family="Virgil, Segoe UI Emoji" font-size="36px" fill="#1e1e1e" text-anchor="start" style="white-space: pre;" direction="ltr" dominant-baseline="text-before-edge">...</text></g><g transform="translate(674.9999999999994 357.914952449963) rotate(0 14.795997619628906 22.49999999999997)"><text x="0" y="0" font-family="Virgil, Segoe UI Emoji" font-size="36px" fill="#1e1e1e" text-anchor="start" style="white-space: pre;" direction="ltr" dominant-baseline="text-before-edge">...</text></g><g transform="translate(673.3333333333325 479.58161911662967) rotate(0 14.795997619628906 22.5)"><text x="0" y="0" font-family="Virgil, Segoe UI Emoji" font-size="36px" fill="#1e1e1e" text-anchor="start" style="white-space: pre;" direction="ltr" dominant-baseline="text-before-edge">...</text></g><g transform="translate(676.666666666666 594.5816191166298) rotate(0 14.795997619628906 22.5)"><text x="0" y="0" font-family="Virgil, Segoe UI Emoji" font-size="36px" fill="#1e1e1e" text-anchor="start" style="white-space: pre;" direction="ltr" dominant-baseline="text-before-edge">...</text></g><g transform="translate(564.9999999999995 361.2482857832964) rotate(0 14.795997619628906 22.5)"><text x="0" y="0" font-family="Virgil, Segoe UI Emoji" font-size="36px" fill="#1e1e1e" text-anchor="start" style="white-space: pre;" direction="ltr" dominant-baseline="text-before-edge">...</text></g><g transform="translate(798.3333333333329 361.2482857832964) rotate(0 14.795997619628906 22.5)"><text x="0" y="0" font-family="Virgil, Segoe UI Emoji" font-size="36px" fill="#1e1e1e" text-anchor="start" style="white-space: pre;" direction="ltr" dominant-baseline="text-before-edge">...</text></g><g transform="translate(553.3333333333335 249.58161911662967) rotate(0 16.001991271972656 22.5)"><text x="0" y="0" font-family="Virgil, Segoe UI Emoji" font-size="36px" fill="#1e1e1e" text-anchor="start" style="white-space: pre;" direction="ltr" dominant-baseline="text-before-edge">51</text></g><g transform="translate(533.3333333333333 491.2482857832963) rotate(0 41.59798431396479 22.5)"><text x="0" y="0" font-family="Virgil, Segoe UI Emoji" font-size="36px" fill="#1e1e1e" text-anchor="start" style="white-space: pre;" direction="ltr" dominant-baseline="text-before-edge">2401</text></g><g transform="translate(533.3333333333333 609.5816191166296) rotate(0 40.337982177734375 22.5)"><text x="0" y="0" font-family="Virgil, Segoe UI Emoji" font-size="36px" fill="#1e1e1e" text-anchor="start" style="white-space: pre;" direction="ltr" dominant-baseline="text-before-edge">2451</text></g><g transform="translate(771.6666666666669 492.9149524499629) rotate(0 49.62598419189453 22.5)"><text x="0" y="0" font-family="Virgil, Segoe UI Emoji" font-size="36px" fill="#1e1e1e" text-anchor="start" style="white-space: pre;" direction="ltr" dominant-baseline="text-before-edge">2448</text></g><g transform="translate(766.6666666666671 606.2482857832963) rotate(0 49.06798553466797 22.5)"><text x="0" y="0" font-family="Virgil, Segoe UI Emoji" font-size="36px" fill="#1e1e1e" text-anchor="start" style="white-space: pre;" direction="ltr" dominant-baseline="text-before-edge">2498</text></g><g stroke-linecap="round"><g transform="translate(398.33333333333303 12.914952449963096) rotate(0 0.4297531913430248 362.64982083176267)"><path d="M0.93 0.28 C0.94 121.23, 0.84 603.77, 0.72 724.6 M-0.04 -0.62 C-0.18 120.6, 0.21 604.7, 0.14 725.92" stroke="#1e1e1e" stroke-width="1" fill="none"></path></g></g><mask></mask><g stroke-linecap="round"><g transform="translate(298.33333333333326 96.24828578329652) rotate(0 359.30478989705443 -0.23388967748265088)"><path d="M-1.15 0.99 C118.99 0.97, 599.58 0.41, 719.76 0.44 M0.45 0.47 C120.5 0.02, 598.9 -1.28, 718.69 -1.46" stroke="#1e1e1e" stroke-width="1" fill="none"></path></g></g><mask></mask><g transform="translate(41.66666666666606 359.5816191166297) rotate(0 80.09998321533203 22.49999999999997)"><text x="0" y="0" font-family="Virgil, Segoe UI Emoji" font-size="36px" fill="#1e1e1e" text-anchor="start" style="white-space: pre;" direction="ltr" dominant-baseline="text-before-edge">data[][]</text></g><g stroke-linecap="round" transform="translate(936.6666666666662 846.2482857832964) rotate(0 75.5 75.5)"><path d="M86.13 0.5 C96.53 1.09, 108.56 7.19, 117.63 13.34 C126.7 19.5, 135.15 28.12, 140.55 37.43 C145.96 46.74, 149.04 58.3, 150.07 69.19 C151.11 80.07, 150.54 92.31, 146.78 102.72 C143.02 113.13, 135.71 124.27, 127.52 131.63 C119.33 139, 108.11 143.75, 97.63 146.9 C87.15 150.05, 75.32 151.88, 64.64 150.53 C53.97 149.17, 42.68 145.05, 33.59 138.75 C24.5 132.44, 15.76 122.41, 10.11 112.72 C4.46 103.03, 0.51 91.2, -0.32 80.6 C-1.15 70, 0.96 59.07, 5.13 49.14 C9.3 39.2, 16.78 28.51, 24.7 20.98 C32.63 13.45, 41.7 7.25, 52.68 3.94 C63.65 0.64, 83.52 1.09, 90.56 1.17 C97.59 1.24, 94.98 3.21, 94.88 4.41 M78.08 1.49 C88.47 0.63, 99.56 4.65, 109.35 9.38 C119.13 14.11, 130.03 21.43, 136.79 29.86 C143.56 38.3, 147.97 49.34, 149.96 59.99 C151.94 70.64, 151.59 83.09, 148.68 93.77 C145.77 104.45, 139.37 115.6, 132.5 124.07 C125.63 132.53, 117.15 139.97, 107.45 144.55 C97.75 149.13, 85.49 151.89, 74.3 151.54 C63.12 151.19, 50.07 147.76, 40.35 142.45 C30.62 137.15, 22.32 128.27, 15.95 119.7 C9.58 111.13, 4.38 101.42, 2.11 91.02 C-0.15 80.61, -0.13 67.96, 2.33 57.28 C4.79 46.6, 9.98 35.43, 16.88 26.95 C23.77 18.47, 33.7 10.99, 43.69 6.4 C53.68 1.82, 70.98 0.47, 76.83 -0.57 C82.69 -1.61, 78.59 -1.35, 78.82 0.17" stroke="#1e1e1e" stroke-width="1" fill="none"></path></g><g transform="translate(966.0201178096405 899.3617238037122) rotate(0 46.259986877441406 22.5)"><text x="46.259986877441406" y="0" font-family="Virgil, Segoe UI Emoji" font-size="36px" fill="#1e1e1e" text-anchor="middle" style="white-space: pre;" direction="ltr" dominant-baseline="text-before-edge">2499</text></g><g stroke-linecap="round" transform="translate(743.3333333333327 846.2482857832964) rotate(0 77.5 76.5)"><path d="M99.13 2.65 C109.66 4.57, 121.55 13.22, 129.88 20.8 C138.21 28.38, 144.94 37.99, 149.13 48.14 C153.32 58.3, 155.59 70.53, 155.02 81.72 C154.45 92.91, 151.21 105.7, 145.7 115.29 C140.18 124.88, 131.35 133.05, 121.94 139.26 C112.53 145.46, 100.34 150.73, 89.22 152.51 C78.1 154.28, 65.92 153.1, 55.22 149.92 C44.52 146.75, 33.19 141.02, 25.01 133.47 C16.83 125.93, 10.33 115.17, 6.15 104.66 C1.96 94.16, -0.9 81.44, -0.08 70.44 C0.73 59.43, 5.38 48.17, 11.03 38.65 C16.68 29.13, 24.81 19.44, 33.82 13.3 C42.84 7.16, 53.54 3.38, 65.12 1.81 C76.69 0.23, 96.44 3.08, 103.28 3.84 C110.11 4.61, 106.44 4.97, 106.12 6.4 M103.03 3.32 C113.53 5.8, 124.11 15.2, 131.84 23.04 C139.58 30.88, 145.55 40.15, 149.44 50.36 C153.34 60.58, 156.4 73.36, 155.22 84.33 C154.05 95.3, 148.26 106.85, 142.39 116.18 C136.53 125.51, 129.35 134.14, 120.02 140.32 C110.7 146.5, 97.59 151.78, 86.43 153.27 C75.28 154.75, 63.63 153.07, 53.11 149.24 C42.58 145.42, 31.55 137.87, 23.26 130.31 C14.96 122.75, 7.26 114.32, 3.33 103.89 C-0.59 93.45, -1.87 78.96, -0.29 67.7 C1.28 56.45, 6.95 45.37, 12.77 36.36 C18.58 27.35, 25.35 19.55, 34.6 13.63 C43.85 7.72, 56.94 2.7, 68.28 0.89 C79.61 -0.93, 96.93 2.05, 102.6 2.75 C108.27 3.45, 102.68 3.56, 102.3 5.11" stroke="#1e1e1e" stroke-width="1" fill="none"></path></g><g transform="translate(771.9645722567074 900.1546170225255) rotate(0 49.06798553466797 22.5)"><text x="49.06798553466797" y="0" font-family="Virgil, Segoe UI Emoji" font-size="36px" fill="#1e1e1e" text-anchor="middle" style="white-space: pre;" direction="ltr" dominant-baseline="text-before-edge">2498</text></g><g stroke-linecap="round" transform="translate(480 846.2482857832964) rotate(0 75.50000000000006 75.5)"><path d="M66.76 0.35 C76.76 -2, 88.92 0.02, 99.17 3.54 C109.41 7.07, 120.37 13.83, 128.26 21.5 C136.14 29.16, 142.8 39.3, 146.48 49.54 C150.17 59.78, 151.51 72.11, 150.36 82.94 C149.22 93.78, 145.38 105.26, 139.62 114.56 C133.86 123.87, 125.02 132.66, 115.78 138.75 C106.54 144.85, 94.9 149.91, 84.2 151.14 C73.49 152.38, 61.74 149.68, 51.56 146.16 C41.37 142.63, 31.06 137.51, 23.07 130.01 C15.07 122.51, 7.28 111.46, 3.6 101.15 C-0.08 90.83, -0.37 79.14, 1 68.11 C2.36 57.08, 6.04 44.22, 11.8 34.98 C17.55 25.73, 25.34 18.54, 35.53 12.64 C45.71 6.74, 65.23 1.38, 72.91 -0.44 C80.6 -2.25, 81.6 0.51, 81.63 1.76 M93.28 1.79 C103.54 2.87, 115.48 9.26, 123.93 16.35 C132.38 23.44, 139.32 34.48, 143.99 44.33 C148.65 54.18, 152.06 64.41, 151.93 75.47 C151.8 86.53, 148.47 100.92, 143.2 110.69 C137.92 120.46, 129.1 127.4, 120.27 134.1 C111.45 140.79, 100.49 148.22, 90.24 150.86 C79.99 153.5, 69.35 153.04, 58.77 149.94 C48.19 146.84, 35.24 139.19, 26.76 132.26 C18.28 125.32, 12.14 117.98, 7.89 108.33 C3.64 98.68, 1 85.45, 1.26 74.37 C1.51 63.28, 4.63 51.58, 9.43 41.83 C14.22 32.08, 21.61 22.73, 30.02 15.85 C38.42 8.97, 49.24 2.9, 59.84 0.56 C70.44 -1.79, 88.15 1.12, 93.61 1.76 C99.06 2.4, 92.8 3.02, 92.58 4.39" stroke="#1e1e1e" stroke-width="1" fill="none"></path></g><g transform="translate(550.7354396683648 899.3617238037122) rotate(0 4.877998352050781 22.5)"><text x="4.877998352050781" y="0" font-family="Virgil, Segoe UI Emoji" font-size="36px" fill="#1e1e1e" text-anchor="middle" style="white-space: pre;" direction="ltr" dominant-baseline="text-before-edge">1</text></g><g stroke-linecap="round" transform="translate(288.33333333333303 846.2482857832964) rotate(0 75.5 75.5)"><path d="M93.29 1.21 C103.48 2.51, 113.93 10.44, 122.2 17.42 C130.48 24.4, 138.28 33.3, 142.94 43.1 C147.6 52.9, 150.05 65.39, 150.15 76.22 C150.26 87.05, 148.14 98.26, 143.57 108.08 C139.01 117.91, 131.48 128.35, 122.76 135.16 C114.05 141.96, 102.03 146.54, 91.26 148.93 C80.5 151.32, 68.81 151.88, 58.17 149.52 C47.53 147.16, 35.97 141.55, 27.43 134.77 C18.89 127.99, 11.54 118.6, 6.92 108.84 C2.3 99.08, -0.41 87.15, -0.27 76.19 C-0.14 65.24, 3.06 52.98, 7.75 43.1 C12.43 33.23, 19.37 23.89, 27.84 16.96 C36.31 10.02, 47.27 3.74, 58.57 1.51 C69.88 -0.72, 88.74 2.7, 95.68 3.55 C102.62 4.4, 100.26 5.58, 100.2 6.6 M80.73 0.09 C91.11 -0.09, 102.51 4.34, 111.88 9.91 C121.26 15.47, 130.4 24.17, 137 33.48 C143.6 42.78, 149.6 54.97, 151.48 65.74 C153.35 76.51, 151.64 88.01, 148.25 98.09 C144.86 108.17, 138.59 118.22, 131.14 126.23 C123.69 134.24, 113.96 142.2, 103.57 146.16 C93.17 150.12, 79.6 150.63, 68.76 149.98 C57.91 149.33, 48.01 147.77, 38.49 142.26 C28.97 136.76, 17.93 126.06, 11.64 116.94 C5.34 107.81, 2.36 98.03, 0.74 87.52 C-0.89 77.02, -1.17 64.7, 1.9 53.91 C4.96 43.12, 11.56 31.11, 19.13 22.78 C26.71 14.45, 36.73 7.6, 47.33 3.95 C57.94 0.3, 77.18 1.18, 82.75 0.88 C88.31 0.58, 81.24 0.99, 80.72 2.15" stroke="#1e1e1e" stroke-width="1" fill="none"></path></g><g transform="translate(351.5627762975963 899.3617238037122) rotate(0 12.383995056152344 22.5)"><text x="12.383995056152344" y="0" font-family="Virgil, Segoe UI Emoji" font-size="36px" fill="#1e1e1e" text-anchor="middle" style="white-space: pre;" direction="ltr" dominant-baseline="text-before-edge">0</text></g><g transform="translate(674.9999999999994 899.5816191166297) rotate(0 14.795997619628906 22.5)"><text x="0" y="0" font-family="Virgil, Segoe UI Emoji" font-size="36px" fill="#1e1e1e" text-anchor="start" style="white-space: pre;" direction="ltr" dominant-baseline="text-before-edge">...</text></g><g stroke-linecap="round"><g transform="translate(214.99999999999977 1159.5816191166296) rotate(0 447.67213461 -0.556484743868964)"><path d="M-0.84 -0.51 C148.25 -0.49, 744.63 -0.82, 894 -0.54 M0.92 -1.82 C150.43 -1.58, 747.2 0.5, 896.18 0.71" stroke="#1e1e1e" stroke-width="1" fill="none"></path></g></g><mask></mask><g stroke-linecap="round"><g transform="translate(279.9999999999998 1071.2482857832965) rotate(0 0.3503519786230527 90.3357495725993)"><path d="M-0.6 0 C-0.38 30.02, 0.52 149.97, 0.79 180.12 M1.28 -1.05 C1.46 29.18, 0.34 151.7, 0.25 181.72" stroke="#1e1e1e" stroke-width="1" fill="none"></path></g></g><mask></mask><g stroke-linecap="round"><g transform="translate(461.6666666666665 1071.2482857832965) rotate(0 -0.646341383110439 90.12571332278196)"><path d="M0.11 -1.11 C0.15 28.88, -0.3 149.54, -0.18 179.88 M-1.29 0.93 C-1.38 31.12, -1.52 151.67, -1.22 181.36" stroke="#1e1e1e" stroke-width="1" fill="none"></path></g></g><mask></mask><g stroke-linecap="round"><g transform="translate(638.3333333333331 1071.2482857832965) rotate(0 -0.5597733742423543 89.81201014109888)"><path d="M0.12 -0.32 C0.22 29.61, 0.08 149.69, -0.04 179.75 M-1.27 -1.54 C-1.28 28.56, -0.94 150.68, -1 181.16" stroke="#1e1e1e" stroke-width="1" fill="none"></path></g></g><mask></mask><g stroke-linecap="round"><g transform="translate(733.3333333333331 1071.2482857832965) rotate(0 0.7697132665431354 90.26223446565211)"><path d="M-0.26 0.8 C-0.24 30.87, 1.05 150.62, 1.11 180.35 M1.8 0.18 C1.68 29.88, 1.15 148.43, 0.75 178.41" stroke="#1e1e1e" stroke-width="1" fill="none"></path></g></g><mask></mask><g stroke-linecap="round"><g transform="translate(916.6666666666666 1071.2482857832965) rotate(0 -0.6923096985731263 89.77160046108997)"><path d="M-0.1 -0.01 C-0.07 29.71, 0.31 149.4, 0.22 179.38 M-1.61 -1.06 C-1.73 29.33, -0.59 150.22, -0.61 180.6" stroke="#1e1e1e" stroke-width="1" fill="none"></path></g></g><mask></mask><g stroke-linecap="round"><g transform="translate(1106.6666666666665 1071.2482857832965) rotate(0 -0.022826904397675207 91.00939469226637)"><path d="M-0.95 0.87 C-1.26 30.71, -1.3 150.28, -1.02 180.13 M0.76 0.28 C0.74 30.85, 1.23 151.57, 1.15 181.74" stroke="#1e1e1e" stroke-width="1" fill="none"></path></g></g><mask></mask><g transform="translate(674.9999999999994 1081.2482857832965) rotate(0 14.795997619628906 22.5)"><text x="0" y="0" font-family="Virgil, Segoe UI Emoji" font-size="36px" fill="#1e1e1e" text-anchor="start" style="white-space: pre;" direction="ltr" dominant-baseline="text-before-edge">...</text></g><g transform="translate(674.9999999999994 1181.2482857832965) rotate(0 14.795997619628906 22.5)"><text x="0" y="0" font-family="Virgil, Segoe UI Emoji" font-size="36px" fill="#1e1e1e" text-anchor="start" style="white-space: pre;" direction="ltr" dominant-baseline="text-before-edge">...</text></g><g transform="translate(10 1139.58161911663) rotate(0 84.65396881103516 22.5)"><text x="0" y="0" font-family="Virgil, Segoe UI Emoji" font-size="36px" fill="#1e1e1e" text-anchor="start" style="white-space: pre;" direction="ltr" dominant-baseline="text-before-edge">parents[]</text></g><g transform="translate(351.6666666666663 1087.914952449963) rotate(0 12.383995056152344 22.5)"><text x="0" y="0" font-family="Virgil, Segoe UI Emoji" font-size="36px" fill="#1e1e1e" text-anchor="start" style="white-space: pre;" direction="ltr" dominant-baseline="text-before-edge">0</text></g><g transform="translate(548.333333333333 1084.581619116629) rotate(0 4.877998352050781 22.5)"><text x="0" y="0" font-family="Virgil, Segoe UI Emoji" font-size="36px" fill="#1e1e1e" text-anchor="start" style="white-space: pre;" direction="ltr" dominant-baseline="text-before-edge">1</text></g><g transform="translate(351.6666666666663 1186.2482857832965) rotate(0 12.383995056152344 22.5)"><text x="0" y="0" font-family="Virgil, Segoe UI Emoji" font-size="36px" fill="#1e1e1e" text-anchor="start" style="white-space: pre;" direction="ltr" dominant-baseline="text-before-edge">0</text></g><g transform="translate(548.333333333333 1187.9149524499626) rotate(0 4.877998352050781 22.5)"><text x="0" y="0" font-family="Virgil, Segoe UI Emoji" font-size="36px" fill="#1e1e1e" text-anchor="start" style="white-space: pre;" direction="ltr" dominant-baseline="text-before-edge">1</text></g><g transform="translate(776.6666666666671 1091.248285783296) rotate(0 49.06798553466797 22.5)"><text x="0" y="0" font-family="Virgil, Segoe UI Emoji" font-size="36px" fill="#1e1e1e" text-anchor="start" style="white-space: pre;" direction="ltr" dominant-baseline="text-before-edge">2498</text></g><g transform="translate(780.0000000000006 1189.5816191166296) rotate(0 49.06798553466797 22.5)"><text x="0" y="0" font-family="Virgil, Segoe UI Emoji" font-size="36px" fill="#1e1e1e" text-anchor="start" style="white-space: pre;" direction="ltr" dominant-baseline="text-before-edge">2498</text></g><g transform="translate(961.6666666666666 1089.5816191166296) rotate(0 46.259986877441406 22.5)"><text x="0" y="0" font-family="Virgil, Segoe UI Emoji" font-size="36px" fill="#1e1e1e" text-anchor="start" style="white-space: pre;" direction="ltr" dominant-baseline="text-before-edge">2499</text></g><g transform="translate(961.6666666666666 1189.5816191166296) rotate(0 46.259986877441406 22.5)"><text x="0" y="0" font-family="Virgil, Segoe UI Emoji" font-size="36px" fill="#1e1e1e" text-anchor="start" style="white-space: pre;" direction="ltr" dominant-baseline="text-before-edge">2499</text></g></svg>