<svg width="958" height="687" viewBox="0 0 958 687" fill="none" xmlns="http://www.w3.org/2000/svg">
<rect width="958" height="687" rx="25" fill="white"/>
<rect x="404" y="118" width="155" height="111" fill="black"/>
<path d="M441.08 159.072V164.904C441.08 170.844 437.372 177.108 432.656 179.484L434.492 181.86C439.64 179.124 443.528 172.104 443.528 164.904V159.072H441.08ZM441.62 159.072V164.904C441.62 171.888 445.4 178.548 450.44 181.248L452.276 178.872C447.668 176.568 444.032 170.628 444.032 164.904V159.072H441.62ZM455.12 156.264V188.808H458.144V156.264H455.12ZM457.424 169.44V171.96H463.472V169.44H457.424ZM473.477 167.28V173.436H476.429V167.28H473.477ZM485.429 167.28V173.436H488.381V167.28H485.429ZM466.205 172.356V174.768H495.617V172.356H466.205ZM480.893 177.216C473.909 177.216 469.733 179.268 469.733 182.976C469.733 186.684 473.909 188.772 480.893 188.772C487.877 188.772 492.053 186.684 492.053 182.976C492.053 179.268 487.877 177.216 480.893 177.216ZM480.893 179.52C486.005 179.52 489.029 180.78 489.029 182.976C489.029 185.208 486.005 186.432 480.893 186.432C475.817 186.432 472.757 185.208 472.757 182.976C472.757 180.78 475.817 179.52 480.893 179.52ZM480.929 156.84C473.837 156.84 469.481 159.108 469.481 162.924C469.481 166.704 473.837 168.936 480.929 168.936C487.985 168.936 492.377 166.704 492.377 162.924C492.377 159.108 487.985 156.84 480.929 156.84ZM480.929 159.18C486.113 159.18 489.317 160.548 489.317 162.924C489.317 165.264 486.113 166.632 480.929 166.632C475.745 166.632 472.541 165.264 472.541 162.924C472.541 160.548 475.745 159.18 480.929 159.18ZM507.387 160.908V166.2C507.387 171.708 503.463 177.9 498.819 180.168L500.547 182.544C505.623 179.952 509.763 172.968 509.763 166.2V160.908H507.387ZM507.927 160.908V166.2C507.927 172.644 511.851 179.196 516.999 181.752L518.691 179.376C513.975 177.144 510.303 171.348 510.303 166.2V160.908H507.927ZM499.971 159.576V162.096H517.503V159.576H499.971ZM521.355 156.264V188.808H524.379V156.264H521.355ZM523.659 169.404V171.924H529.707V169.404H523.659Z" fill="white"/>
<rect x="726" y="118" width="155" height="111" fill="black"/>
<path d="M755.124 182.184V184.668H784.608V182.184H755.124ZM768.3 174.408V182.904H771.288V174.408H768.3ZM758.58 158.568V175.2H781.08V158.568H778.128V164.364H761.532V158.568H758.58ZM761.532 166.776H778.128V172.752H761.532V166.776ZM789.969 158.784V161.232H804.369V158.784H789.969ZM794.865 166.056V174.192H797.817V166.056H794.865ZM803.181 158.784V160.512C803.181 162.6 803.181 165.552 802.353 169.836L805.269 170.16C806.133 165.876 806.133 162.636 806.133 160.512V158.784H803.181ZM810.561 156.264V180.78H813.549V156.264H810.561ZM812.181 166.848V169.332H818.193V166.848H812.181ZM792.993 185.64V188.088H814.593V185.64H792.993ZM792.993 178.512V186.396H795.945V178.512H792.993ZM788.313 175.596C794.037 175.596 801.813 175.452 808.581 174.264L808.365 172.104C801.777 173.004 793.785 173.148 787.989 173.148L788.313 175.596ZM843.607 156.264V175.848H846.595V156.264H843.607ZM845.767 164.904V167.388H851.419V164.904H845.767ZM826.147 177.684V188.376H846.595V177.684H826.147ZM843.679 180.096V185.964H829.063V180.096H843.679ZM821.431 159.684V162.132H840.655V159.684H821.431ZM831.043 163.716C826.363 163.716 823.231 166.02 823.231 169.548C823.231 173.076 826.363 175.308 831.043 175.308C835.687 175.308 838.819 173.076 838.819 169.548C838.819 166.02 835.687 163.716 831.043 163.716ZM831.043 166.02C833.959 166.02 835.975 167.388 835.975 169.548C835.975 171.672 833.959 173.04 831.043 173.04C828.055 173.04 826.075 171.672 826.075 169.548C826.075 167.388 828.055 166.02 831.043 166.02ZM829.531 155.976V160.944H832.519V155.976H829.531Z" fill="white"/>
<path d="M405.319 55.842V57.066H414.931V55.842H405.319ZM410.125 57.894C407.785 57.894 406.219 59.046 406.219 60.846C406.219 62.628 407.785 63.762 410.125 63.762C412.429 63.762 414.013 62.628 414.013 60.846C414.013 59.046 412.429 57.894 410.125 57.894ZM410.125 59.064C411.583 59.064 412.591 59.748 412.591 60.846C412.591 61.908 411.583 62.61 410.125 62.61C408.631 62.61 407.641 61.908 407.641 60.846C407.641 59.748 408.631 59.064 410.125 59.064ZM416.407 54.132V64.302H417.901V54.132H416.407ZM417.487 58.614V59.856H420.313V58.614H417.487ZM407.335 65.184V66.408H416.407V70.404H417.901V65.184H407.335ZM409.369 54.042V56.526H410.863V54.042H409.369ZM423.695 63.888V70.188H434.621V63.888H433.127V65.778H425.171V63.888H423.695ZM425.171 66.93H433.127V68.982H425.171V66.93ZM421.823 61.548V62.754H436.529V61.548H421.823ZM428.429 54.312V55.032C428.429 57.084 425.603 58.83 422.669 59.226L423.209 60.396C426.557 59.892 429.707 57.858 429.707 55.032V54.312H428.429ZM428.663 54.312V55.032C428.663 57.822 431.831 59.892 435.143 60.396L435.701 59.226C432.803 58.83 429.941 57.048 429.941 55.032V54.312H428.663ZM449.416 54.132V70.404H450.91V54.132H449.416ZM450.55 60.81V62.07H453.574V60.81H450.55ZM438.31 56.724V57.948H447.904V56.724H438.31ZM443.17 59.298C440.884 59.298 439.21 60.846 439.21 63.042C439.21 65.238 440.884 66.786 443.17 66.786C445.474 66.786 447.13 65.238 447.13 63.042C447.13 60.846 445.474 59.298 443.17 59.298ZM443.17 60.54C444.646 60.54 445.708 61.566 445.708 63.042C445.708 64.5 444.646 65.544 443.17 65.544C441.694 65.544 440.632 64.5 440.632 63.042C440.632 61.566 441.694 60.54 443.17 60.54ZM442.396 54.33V57.282H443.89V54.33H442.396ZM465.975 54.114V70.422H467.469V54.114H465.975ZM467.109 60.594V61.854H470.133V60.594H467.109ZM455.607 65.256V66.498H456.903C460.017 66.498 462.177 66.372 464.715 65.922L464.553 64.68C462.087 65.148 459.963 65.256 456.903 65.256H455.607ZM455.571 55.644V56.868H461.457V60.252H455.607V65.76H457.083V61.476H462.933V55.644H455.571Z" fill="black"/>
<path d="M363.262 339.132V355.404H364.702V339.132H363.262ZM360.526 345.756V346.98H363.658V345.756H360.526ZM359.572 339.492V354.576H360.976V339.492H359.572ZM351.688 341.094V350.49H353.182V341.094H351.688ZM351.688 349.896V351.192H352.732C354.478 351.192 356.35 351.102 358.564 350.67L358.402 349.374C356.278 349.788 354.406 349.896 352.732 349.896H351.688ZM371.09 344.64V347.718H372.566V344.64H371.09ZM377.066 344.64V347.718H378.542V344.64H377.066ZM367.454 347.178V348.384H382.16V347.178H367.454ZM374.798 349.608C371.306 349.608 369.218 350.634 369.218 352.488C369.218 354.342 371.306 355.386 374.798 355.386C378.29 355.386 380.378 354.342 380.378 352.488C380.378 350.634 378.29 349.608 374.798 349.608ZM374.798 350.76C377.354 350.76 378.866 351.39 378.866 352.488C378.866 353.604 377.354 354.216 374.798 354.216C372.26 354.216 370.73 353.604 370.73 352.488C370.73 351.39 372.26 350.76 374.798 350.76ZM374.816 339.42C371.27 339.42 369.092 340.554 369.092 342.462C369.092 344.352 371.27 345.468 374.816 345.468C378.344 345.468 380.54 344.352 380.54 342.462C380.54 340.554 378.344 339.42 374.816 339.42ZM374.816 340.59C377.408 340.59 379.01 341.274 379.01 342.462C379.01 343.632 377.408 344.316 374.816 344.316C372.224 344.316 370.622 343.632 370.622 342.462C370.622 341.274 372.224 340.59 374.816 340.59ZM391.375 339.402C387.775 339.402 385.651 340.41 385.651 342.228C385.651 344.046 387.775 345.054 391.375 345.054C394.957 345.054 397.099 344.046 397.099 342.228C397.099 340.41 394.957 339.402 391.375 339.402ZM391.375 340.536C394.021 340.536 395.551 341.148 395.551 342.228C395.551 343.308 394.021 343.92 391.375 343.92C388.711 343.92 387.181 343.308 387.181 342.228C387.181 341.148 388.711 340.536 391.375 340.536ZM384.013 346.134V347.34H398.719V346.134H384.013ZM385.795 348.726V349.878H395.371V351.318H385.831V354.378H387.307V352.398H396.847V348.726H385.795ZM385.831 354.054V355.224H397.333V354.054H385.831ZM414.274 343.614V344.838H418.378V343.614H414.274ZM417.532 339.15V351.066H419.026V339.15H417.532ZM408.64 353.82V355.044H419.476V353.82H408.64ZM408.64 350.022V354.45H410.134V350.022H408.64ZM409.792 341.166V342.48C409.792 344.784 408.118 346.944 405.688 347.808L406.462 348.996C409.18 347.988 411.016 345.432 411.016 342.48V341.166H409.792ZM410.08 341.166V342.462C410.08 345.216 411.826 347.664 414.472 348.618L415.228 347.448C412.87 346.62 411.286 344.568 411.286 342.462V341.166H410.08ZM406.156 340.464V341.67H414.85V340.464H406.156ZM422.931 345.504V346.728H424.191C427.521 346.728 429.501 346.62 431.805 346.152L431.625 344.946C429.393 345.396 427.467 345.504 424.191 345.504H422.931ZM422.931 340.068V346.224H424.407V341.274H430.113V340.068H422.931ZM433.335 339.132V347.322H434.829V339.132H433.335ZM434.415 342.552V343.794H437.241V342.552H434.415ZM424.497 348.15V349.338H433.371V351.012H424.533V354.684H426.009V352.164H434.829V348.15H424.497ZM424.533 353.982V355.188H435.423V353.982H424.533ZM449.785 339.132V355.404H451.279V339.132H449.785ZM450.919 345.81V347.07H453.943V345.81H450.919ZM438.679 341.724V342.948H448.273V341.724H438.679ZM443.539 344.298C441.253 344.298 439.579 345.846 439.579 348.042C439.579 350.238 441.253 351.786 443.539 351.786C445.843 351.786 447.499 350.238 447.499 348.042C447.499 345.846 445.843 344.298 443.539 344.298ZM443.539 345.54C445.015 345.54 446.077 346.566 446.077 348.042C446.077 349.5 445.015 350.544 443.539 350.544C442.063 350.544 441.001 349.5 441.001 348.042C441.001 346.566 442.063 345.54 443.539 345.54ZM442.765 339.33V342.282H444.259V339.33H442.765ZM466.344 339.114V355.422H467.838V339.114H466.344ZM467.478 345.594V346.854H470.502V345.594H467.478ZM455.976 350.256V351.498H457.272C460.386 351.498 462.546 351.372 465.084 350.922L464.922 349.68C462.456 350.148 460.332 350.256 457.272 350.256H455.976ZM455.94 340.644V341.868H461.826V345.252H455.976V350.76H457.452V346.476H463.302V340.644H455.94Z" fill="black"/>
<path d="M826.869 343.344V344.586H830.541V343.344H826.869ZM830.073 339.132V348.834H831.567V339.132H830.073ZM826.221 349.32C822.855 349.32 820.785 350.454 820.785 352.362C820.785 354.288 822.855 355.386 826.221 355.386C829.569 355.386 831.639 354.288 831.639 352.362C831.639 350.454 829.569 349.32 826.221 349.32ZM826.221 350.49C828.669 350.49 830.163 351.174 830.163 352.362C830.163 353.532 828.669 354.216 826.221 354.216C823.773 354.216 822.279 353.532 822.279 352.362C822.279 351.174 823.773 350.49 826.221 350.49ZM822.333 340.77V342.084C822.333 344.424 820.659 346.602 818.247 347.484L819.021 348.672C821.721 347.664 823.557 345.09 823.557 342.084V340.77H822.333ZM822.621 340.77V342.084C822.621 344.82 824.367 347.268 827.013 348.222L827.769 347.034C825.411 346.206 823.827 344.19 823.827 342.084V340.77H822.621ZM818.697 340.32V341.544H827.391V340.32H818.697ZM834.752 352.092V353.334H849.494V352.092H834.752ZM841.34 348.204V352.452H842.834V348.204H841.34ZM836.48 340.284V348.6H847.73V340.284H846.254V343.182H837.956V340.284H836.48ZM837.956 344.388H846.254V347.376H837.956V344.388ZM851.292 346.692V347.826H866.052V346.692H851.292ZM853.038 349.14V350.202H862.74V351.588H853.092V354.522H854.568V352.614H864.198V349.14H853.038ZM853.092 354.126V355.206H864.72V354.126H853.092ZM853.164 339.6V340.662H862.686V341.976H853.2V344.748H854.676V342.984H864.144V339.6H853.164ZM853.2 344.388V345.468H864.45V344.388H853.2ZM876.981 341.814V342.516C876.981 344.64 875.343 346.494 872.931 347.232L873.633 348.402C876.369 347.538 878.205 345.288 878.205 342.516V341.814H876.981ZM877.251 341.814V342.516C877.251 345.108 879.033 347.268 881.751 348.078L882.453 346.926C880.059 346.224 878.475 344.46 878.475 342.516V341.814H877.251ZM873.381 341.022V342.228H882.057V341.022H873.381ZM876.981 339.06V341.526H878.475V339.06H876.981ZM884.055 339.132V348.582H885.549V339.132H884.055ZM885.135 343.146V344.388H887.961V343.146H885.135ZM879.717 349.932V350.364C879.717 352.182 877.341 353.766 874.533 354.198L875.109 355.35C878.295 354.81 880.995 352.92 880.995 350.364V349.932H879.717ZM880.005 349.932V350.364C880.005 352.866 882.705 354.828 885.891 355.368L886.449 354.216C883.695 353.766 881.283 352.146 881.283 350.364V349.932H880.005ZM875.163 349.464V350.67H885.837V349.464H875.163ZM893.81 340.374C891.416 340.374 889.724 342.588 889.724 346.044C889.724 349.518 891.416 351.732 893.81 351.732C896.204 351.732 897.896 349.518 897.896 346.044C897.896 342.588 896.204 340.374 893.81 340.374ZM893.81 341.724C895.376 341.724 896.474 343.416 896.474 346.044C896.474 348.69 895.376 350.418 893.81 350.418C892.226 350.418 891.146 348.69 891.146 346.044C891.146 343.416 892.226 341.724 893.81 341.724ZM900.488 339.132V355.404H902V339.132H900.488ZM901.64 345.63V346.89H904.664V345.63H901.64ZM917.064 339.114V355.422H918.558V339.114H917.064ZM918.198 345.594V346.854H921.222V345.594H918.198ZM906.696 350.256V351.498H907.992C911.106 351.498 913.266 351.372 915.804 350.922L915.642 349.68C913.176 350.148 911.052 350.256 907.992 350.256H906.696ZM906.66 340.644V341.868H912.546V345.252H906.696V350.76H908.172V346.476H914.022V340.644H906.66Z" fill="black"/>
<path d="M589.826 122.824V122.986C589.826 127.414 588.206 131.05 583.058 133.588L583.868 134.74C589.7 131.842 591.284 127.522 591.284 122.824H589.826ZM583.94 122.824V124.03H590.708V122.824H583.94ZM589.592 126.856L583.13 127.288L583.364 128.62L589.592 128.008V126.856ZM593.912 121.114V137.404H595.424V121.114H593.912ZM595.01 127.72V128.962H598.016V127.72H595.01ZM601.326 128.926V130.15H612.504V128.926H601.326ZM599.472 133.966V135.208H614.214V133.966H599.472ZM601.326 122.626V129.466H602.82V123.868H612.342V122.626H601.326ZM616.013 128.692V129.826H630.773V128.692H616.013ZM617.759 131.14V132.202H627.461V133.588H617.813V136.522H619.289V134.614H628.919V131.14H617.759ZM617.813 136.126V137.206H629.441V136.126H617.813ZM617.885 121.6V122.662H627.407V123.976H617.921V126.748H619.397V124.984H628.865V121.6H617.885ZM617.921 126.388V127.468H629.171V126.388H617.921ZM637.634 129.718V130.942H652.376V129.718H637.634ZM644.366 130.33V134.074H645.86V130.33H644.366ZM639.506 135.82V137.044H650.738V135.82H639.506ZM639.506 132.634V136.288H640.982V132.634H639.506ZM639.596 121.636V128.152H650.432V121.636H648.938V123.706H641.072V121.636H639.596ZM641.072 124.876H648.938V126.946H641.072V124.876ZM654.193 130.816V132.04H668.953V130.816H654.193ZM658.009 131.482V137.404H659.521V131.482H658.009ZM663.607 131.482V137.404H665.101V131.482H663.607ZM655.957 121.762V122.968H665.659V124.804H655.993V128.746H657.505V125.956H667.153V121.762H655.957ZM655.993 127.954V129.16H667.531V127.954H655.993ZM681.785 121.132V137.404H683.279V121.132H681.785ZM682.919 127.81V129.07H685.943V127.81H682.919ZM670.679 123.724V124.948H680.273V123.724H670.679ZM675.539 126.298C673.253 126.298 671.579 127.846 671.579 130.042C671.579 132.238 673.253 133.786 675.539 133.786C677.843 133.786 679.499 132.238 679.499 130.042C679.499 127.846 677.843 126.298 675.539 126.298ZM675.539 127.54C677.015 127.54 678.077 128.566 678.077 130.042C678.077 131.5 677.015 132.544 675.539 132.544C674.063 132.544 673.001 131.5 673.001 130.042C673.001 128.566 674.063 127.54 675.539 127.54ZM674.765 121.33V124.282H676.259V121.33H674.765ZM698.344 121.114V137.422H699.838V121.114H698.344ZM699.478 127.594V128.854H702.502V127.594H699.478ZM687.976 132.256V133.498H689.272C692.386 133.498 694.546 133.372 697.084 132.922L696.922 131.68C694.456 132.148 692.332 132.256 689.272 132.256H687.976ZM687.94 122.644V123.868H693.826V127.252H687.976V132.76H689.452V128.476H695.302V122.644H687.94Z" fill="black"/>
<path d="M252.17 147.842V149.066H261.782V147.842H252.17ZM256.976 149.894C254.636 149.894 253.07 151.046 253.07 152.846C253.07 154.628 254.636 155.762 256.976 155.762C259.28 155.762 260.864 154.628 260.864 152.846C260.864 151.046 259.28 149.894 256.976 149.894ZM256.976 151.064C258.434 151.064 259.442 151.748 259.442 152.846C259.442 153.908 258.434 154.61 256.976 154.61C255.482 154.61 254.492 153.908 254.492 152.846C254.492 151.748 255.482 151.064 256.976 151.064ZM263.258 146.132V156.302H264.752V146.132H263.258ZM264.338 150.614V151.856H267.164V150.614H264.338ZM254.186 157.184V158.408H263.258V162.404H264.752V157.184H254.186ZM256.22 146.042V148.526H257.714V146.042H256.22ZM270.547 155.888V162.188H281.473V155.888H279.979V157.778H272.023V155.888H270.547ZM272.023 158.93H279.979V160.982H272.023V158.93ZM268.675 153.548V154.754H283.381V153.548H268.675ZM275.281 146.312V147.032C275.281 149.084 272.455 150.83 269.521 151.226L270.061 152.396C273.409 151.892 276.559 149.858 276.559 147.032V146.312H275.281ZM275.515 146.312V147.032C275.515 149.822 278.683 151.892 281.995 152.396L282.553 151.226C279.655 150.83 276.793 149.048 276.793 147.032V146.312H275.515ZM289.806 146.726C287.394 146.726 285.612 148.202 285.612 150.344C285.612 152.468 287.394 153.944 289.806 153.944C292.236 153.944 294.018 152.468 294.018 150.344C294.018 148.202 292.236 146.726 289.806 146.726ZM289.806 147.95C291.39 147.95 292.56 148.94 292.56 150.344C292.56 151.748 291.39 152.72 289.806 152.72C288.24 152.72 287.052 151.748 287.052 150.344C287.052 148.94 288.24 147.95 289.806 147.95ZM297.078 146.132V154.466H298.59V146.132H297.078ZM288.06 155.258V156.464H297.114V158.102H288.096V161.666H289.554V159.218H298.59V155.258H288.06ZM288.096 161V162.188H299.13V161H288.096ZM310.486 150.344V151.586H314.158V150.344H310.486ZM313.69 146.132V155.834H315.184V146.132H313.69ZM309.838 156.32C306.472 156.32 304.402 157.454 304.402 159.362C304.402 161.288 306.472 162.386 309.838 162.386C313.186 162.386 315.256 161.288 315.256 159.362C315.256 157.454 313.186 156.32 309.838 156.32ZM309.838 157.49C312.286 157.49 313.78 158.174 313.78 159.362C313.78 160.532 312.286 161.216 309.838 161.216C307.39 161.216 305.896 160.532 305.896 159.362C305.896 158.174 307.39 157.49 309.838 157.49ZM305.95 147.77V149.084C305.95 151.424 304.276 153.602 301.864 154.484L302.638 155.672C305.338 154.664 307.174 152.09 307.174 149.084V147.77H305.95ZM306.238 147.77V149.084C306.238 151.82 307.984 154.268 310.63 155.222L311.386 154.034C309.028 153.206 307.444 151.19 307.444 149.084V147.77H306.238ZM302.314 147.32V148.544H311.008V147.32H302.314ZM325.713 146.402C322.113 146.402 319.989 147.41 319.989 149.228C319.989 151.046 322.113 152.054 325.713 152.054C329.295 152.054 331.437 151.046 331.437 149.228C331.437 147.41 329.295 146.402 325.713 146.402ZM325.713 147.536C328.359 147.536 329.889 148.148 329.889 149.228C329.889 150.308 328.359 150.92 325.713 150.92C323.049 150.92 321.519 150.308 321.519 149.228C321.519 148.148 323.049 147.536 325.713 147.536ZM318.351 153.134V154.34H333.057V153.134H318.351ZM320.133 155.726V156.878H329.709V158.318H320.169V161.378H321.645V159.398H331.185V155.726H320.133ZM320.169 161.054V162.224H331.671V161.054H320.169ZM344.04 148.814V149.516C344.04 151.64 342.402 153.494 339.99 154.232L340.692 155.402C343.428 154.538 345.264 152.288 345.264 149.516V148.814H344.04ZM344.31 148.814V149.516C344.31 152.108 346.092 154.268 348.81 155.078L349.512 153.926C347.118 153.224 345.534 151.46 345.534 149.516V148.814H344.31ZM340.44 148.022V149.228H349.116V148.022H340.44ZM344.04 146.06V148.526H345.534V146.06H344.04ZM351.114 146.132V155.582H352.608V146.132H351.114ZM352.194 150.146V151.388H355.02V150.146H352.194ZM346.776 156.932V157.364C346.776 159.182 344.4 160.766 341.592 161.198L342.168 162.35C345.354 161.81 348.054 159.92 348.054 157.364V156.932H346.776ZM347.064 156.932V157.364C347.064 159.866 349.764 161.828 352.95 162.368L353.508 161.216C350.754 160.766 348.342 159.146 348.342 157.364V156.932H347.064ZM342.222 156.464V157.67H352.896V156.464H342.222ZM360.868 147.374C358.474 147.374 356.782 149.588 356.782 153.044C356.782 156.518 358.474 158.732 360.868 158.732C363.262 158.732 364.954 156.518 364.954 153.044C364.954 149.588 363.262 147.374 360.868 147.374ZM360.868 148.724C362.434 148.724 363.532 150.416 363.532 153.044C363.532 155.69 362.434 157.418 360.868 157.418C359.284 157.418 358.204 155.69 358.204 153.044C358.204 150.416 359.284 148.724 360.868 148.724ZM367.546 146.132V162.404H369.058V146.132H367.546ZM368.698 152.63V153.89H371.722V152.63H368.698ZM384.123 146.114V162.422H385.617V146.114H384.123ZM385.257 152.594V153.854H388.281V152.594H385.257ZM373.755 157.256V158.498H375.051C378.165 158.498 380.325 158.372 382.863 157.922L382.701 156.68C380.235 157.148 378.111 157.256 375.051 157.256H373.755ZM373.719 147.644V148.868H379.605V152.252H373.755V157.76H375.231V153.476H381.081V147.644H373.719Z" fill="black"/>
<path d="M196.391 497.842V499.066H206.003V497.842H196.391ZM201.197 499.894C198.857 499.894 197.291 501.046 197.291 502.846C197.291 504.628 198.857 505.762 201.197 505.762C203.501 505.762 205.085 504.628 205.085 502.846C205.085 501.046 203.501 499.894 201.197 499.894ZM201.197 501.064C202.655 501.064 203.663 501.748 203.663 502.846C203.663 503.908 202.655 504.61 201.197 504.61C199.703 504.61 198.713 503.908 198.713 502.846C198.713 501.748 199.703 501.064 201.197 501.064ZM207.479 496.132V506.302H208.973V496.132H207.479ZM208.559 500.614V501.856H211.385V500.614H208.559ZM198.407 507.184V508.408H207.479V512.404H208.973V507.184H198.407ZM200.441 496.042V498.526H201.935V496.042H200.441ZM214.768 505.888V512.188H225.694V505.888H224.2V507.778H216.244V505.888H214.768ZM216.244 508.93H224.2V510.982H216.244V508.93ZM212.896 503.548V504.754H227.602V503.548H212.896ZM219.502 496.312V497.032C219.502 499.084 216.676 500.83 213.742 501.226L214.282 502.396C217.63 501.892 220.78 499.858 220.78 497.032V496.312H219.502ZM219.736 496.312V497.032C219.736 499.822 222.904 501.892 226.216 502.396L226.774 501.226C223.876 500.83 221.014 499.048 221.014 497.032V496.312H219.736ZM234.026 496.726C231.614 496.726 229.832 498.202 229.832 500.344C229.832 502.468 231.614 503.944 234.026 503.944C236.456 503.944 238.238 502.468 238.238 500.344C238.238 498.202 236.456 496.726 234.026 496.726ZM234.026 497.95C235.61 497.95 236.78 498.94 236.78 500.344C236.78 501.748 235.61 502.72 234.026 502.72C232.46 502.72 231.272 501.748 231.272 500.344C231.272 498.94 232.46 497.95 234.026 497.95ZM241.298 496.132V504.466H242.81V496.132H241.298ZM232.28 505.258V506.464H241.334V508.102H232.316V511.666H233.774V509.218H242.81V505.258H232.28ZM232.316 511V512.188H243.35V511H232.316ZM254.707 500.344V501.586H258.379V500.344H254.707ZM257.911 496.132V505.834H259.405V496.132H257.911ZM254.059 506.32C250.693 506.32 248.623 507.454 248.623 509.362C248.623 511.288 250.693 512.386 254.059 512.386C257.407 512.386 259.477 511.288 259.477 509.362C259.477 507.454 257.407 506.32 254.059 506.32ZM254.059 507.49C256.507 507.49 258.001 508.174 258.001 509.362C258.001 510.532 256.507 511.216 254.059 511.216C251.611 511.216 250.117 510.532 250.117 509.362C250.117 508.174 251.611 507.49 254.059 507.49ZM250.171 497.77V499.084C250.171 501.424 248.497 503.602 246.085 504.484L246.859 505.672C249.559 504.664 251.395 502.09 251.395 499.084V497.77H250.171ZM250.459 497.77V499.084C250.459 501.82 252.205 504.268 254.851 505.222L255.607 504.034C253.249 503.206 251.665 501.19 251.665 499.084V497.77H250.459ZM246.535 497.32V498.544H255.229V497.32H246.535ZM269.933 496.402C266.333 496.402 264.209 497.41 264.209 499.228C264.209 501.046 266.333 502.054 269.933 502.054C273.515 502.054 275.657 501.046 275.657 499.228C275.657 497.41 273.515 496.402 269.933 496.402ZM269.933 497.536C272.579 497.536 274.109 498.148 274.109 499.228C274.109 500.308 272.579 500.92 269.933 500.92C267.269 500.92 265.739 500.308 265.739 499.228C265.739 498.148 267.269 497.536 269.933 497.536ZM262.571 503.134V504.34H277.277V503.134H262.571ZM264.353 505.726V506.878H273.929V508.318H264.389V511.378H265.865V509.398H275.405V505.726H264.353ZM264.389 511.054V512.224H275.891V511.054H264.389ZM296.055 496.132V512.404H297.549V496.132H296.055ZM291.285 497.878V498.13C291.285 502.45 289.107 505.906 284.409 508.174L285.201 509.38C290.637 506.716 292.761 502.594 292.761 497.878H291.285ZM285.147 497.878V499.102H291.933V497.878H285.147ZM300.751 505.078V506.302H315.511V505.078H300.751ZM302.623 496.546V497.716H312.145V499.39H302.659V502.684H304.135V500.488H313.603V496.546H302.623ZM302.659 502.198V503.368H313.963V502.198H302.659ZM307.375 502.81V505.69H308.869V502.81H307.375ZM302.389 507.544V508.768H312.217V512.26H313.711V507.544H302.389ZM320.314 505.273L320.416 502.46L318.039 503.969L317.425 502.895L319.931 501.591L317.425 500.287L318.039 499.213L320.416 500.722L320.314 497.909H321.541L321.439 500.722L323.817 499.213L324.431 500.287L321.925 501.591L324.431 502.895L323.817 503.969L321.439 502.46L321.541 505.273H320.314ZM329.314 505.273L329.416 502.46L327.039 503.969L326.425 502.895L328.931 501.591L326.425 500.287L327.039 499.213L329.416 500.722L329.314 497.909H330.541L330.439 500.722L332.817 499.213L333.431 500.287L330.925 501.591L333.431 502.895L332.817 503.969L330.439 502.46L330.541 505.273H329.314ZM346.344 496.132V512.404H347.838V496.132H346.344ZM347.478 502.81V504.07H350.502V502.81H347.478ZM335.238 498.724V499.948H344.832V498.724H335.238ZM340.098 501.298C337.812 501.298 336.138 502.846 336.138 505.042C336.138 507.238 337.812 508.786 340.098 508.786C342.402 508.786 344.058 507.238 344.058 505.042C344.058 502.846 342.402 501.298 340.098 501.298ZM340.098 502.54C341.574 502.54 342.636 503.566 342.636 505.042C342.636 506.5 341.574 507.544 340.098 507.544C338.622 507.544 337.56 506.5 337.56 505.042C337.56 503.566 338.622 502.54 340.098 502.54ZM339.324 496.33V499.282H340.818V496.33H339.324ZM362.902 496.114V512.422H364.396V496.114H362.902ZM364.036 502.594V503.854H367.06V502.594H364.036ZM352.534 507.256V508.498H353.83C356.944 508.498 359.104 508.372 361.642 507.922L361.48 506.68C359.014 507.148 356.89 507.256 353.83 507.256H352.534ZM352.498 497.644V498.868H358.384V502.252H352.534V507.76H354.01V503.476H359.86V497.644H352.498Z" fill="black"/>
<path d="M598.105 155.824V155.986C598.105 160.414 596.485 164.05 591.337 166.588L592.147 167.74C597.979 164.842 599.563 160.522 599.563 155.824H598.105ZM592.219 155.824V157.03H598.987V155.824H592.219ZM597.871 159.856L591.409 160.288L591.643 161.62L597.871 161.008V159.856ZM602.191 154.114V170.404H603.703V154.114H602.191ZM603.289 160.72V161.962H606.295V160.72H603.289ZM609.606 161.926V163.15H620.784V161.926H609.606ZM607.752 166.966V168.208H622.494V166.966H607.752ZM609.606 155.626V162.466H611.1V156.868H620.622V155.626H609.606ZM624.292 161.692V162.826H639.052V161.692H624.292ZM626.038 164.14V165.202H635.74V166.588H626.092V169.522H627.568V167.614H637.198V164.14H626.038ZM626.092 169.126V170.206H637.72V169.126H626.092ZM626.164 154.6V155.662H635.686V156.976H626.2V159.748H627.676V157.984H637.144V154.6H626.164ZM626.2 159.388V160.468H637.45V159.388H626.2ZM649.981 156.814V157.516C649.981 159.64 648.343 161.494 645.931 162.232L646.633 163.402C649.369 162.538 651.205 160.288 651.205 157.516V156.814H649.981ZM650.251 156.814V157.516C650.251 160.108 652.033 162.268 654.751 163.078L655.453 161.926C653.059 161.224 651.475 159.46 651.475 157.516V156.814H650.251ZM646.381 156.022V157.228H655.057V156.022H646.381ZM649.981 154.06V156.526H651.475V154.06H649.981ZM657.055 154.132V163.582H658.549V154.132H657.055ZM658.135 158.146V159.388H660.961V158.146H658.135ZM652.717 164.932V165.364C652.717 167.182 650.341 168.766 647.533 169.198L648.109 170.35C651.295 169.81 653.995 167.92 653.995 165.364V164.932H652.717ZM653.005 164.932V165.364C653.005 167.866 655.705 169.828 658.891 170.368L659.449 169.216C656.695 168.766 654.283 167.146 654.283 165.364V164.932H653.005ZM648.163 164.464V165.67H658.837V164.464H648.163ZM666.81 155.374C664.416 155.374 662.724 157.588 662.724 161.044C662.724 164.518 664.416 166.732 666.81 166.732C669.204 166.732 670.896 164.518 670.896 161.044C670.896 157.588 669.204 155.374 666.81 155.374ZM666.81 156.724C668.376 156.724 669.474 158.416 669.474 161.044C669.474 163.69 668.376 165.418 666.81 165.418C665.226 165.418 664.146 163.69 664.146 161.044C664.146 158.416 665.226 156.724 666.81 156.724ZM673.488 154.132V170.404H675V154.132H673.488ZM674.64 160.63V161.89H677.664V160.63H674.64ZM690.064 154.114V170.422H691.558V154.114H690.064ZM691.198 160.594V161.854H694.222V160.594H691.198ZM679.696 165.256V166.498H680.992C684.106 166.498 686.266 166.372 688.804 165.922L688.642 164.68C686.176 165.148 684.052 165.256 680.992 165.256H679.696ZM679.66 155.644V156.868H685.546V160.252H679.696V165.76H681.172V161.476H687.022V155.644H679.66Z" fill="black"/>
<path d="M570.134 201.092V202.334H584.876V201.092H570.134ZM576.722 197.204V201.452H578.216V197.204H576.722ZM571.862 189.284V197.6H583.112V189.284H581.636V192.182H573.338V189.284H571.862ZM573.338 193.388H581.636V196.376H573.338V193.388ZM587.557 189.392V190.616H594.757V189.392H587.557ZM590.005 193.028V197.096H591.481V193.028H590.005ZM594.163 189.392V190.256C594.163 191.3 594.163 192.776 593.749 194.918L595.207 195.08C595.639 192.938 595.639 191.318 595.639 190.256V189.392H594.163ZM597.853 188.132V200.39H599.347V188.132H597.853ZM598.663 193.424V194.666H601.669V193.424H598.663ZM589.069 202.82V204.044H599.869V202.82H589.069ZM589.069 199.256V203.198H590.545V199.256H589.069ZM586.729 197.798C589.591 197.798 593.479 197.726 596.863 197.132L596.755 196.052C593.461 196.502 589.465 196.574 586.567 196.574L586.729 197.798ZM614.376 188.132V197.924H615.87V188.132H614.376ZM615.456 192.452V193.694H618.282V192.452H615.456ZM605.646 198.842V204.188H615.87V198.842H605.646ZM614.412 200.048V202.982H607.104V200.048H614.412ZM603.288 189.842V191.066H612.9V189.842H603.288ZM608.094 191.858C605.754 191.858 604.188 193.01 604.188 194.774C604.188 196.538 605.754 197.654 608.094 197.654C610.416 197.654 611.982 196.538 611.982 194.774C611.982 193.01 610.416 191.858 608.094 191.858ZM608.094 193.01C609.552 193.01 610.56 193.694 610.56 194.774C610.56 195.836 609.552 196.52 608.094 196.52C606.6 196.52 605.61 195.836 605.61 194.774C605.61 193.694 606.6 193.01 608.094 193.01ZM607.338 187.988V190.472H608.832V187.988H607.338ZM627.154 188.402C623.554 188.402 621.43 189.41 621.43 191.228C621.43 193.046 623.554 194.054 627.154 194.054C630.736 194.054 632.878 193.046 632.878 191.228C632.878 189.41 630.736 188.402 627.154 188.402ZM627.154 189.536C629.8 189.536 631.33 190.148 631.33 191.228C631.33 192.308 629.8 192.92 627.154 192.92C624.49 192.92 622.96 192.308 622.96 191.228C622.96 190.148 624.49 189.536 627.154 189.536ZM619.792 195.134V196.34H634.498V195.134H619.792ZM621.574 197.726V198.878H631.15V200.318H621.61V203.378H623.086V201.398H632.626V197.726H621.574ZM621.61 203.054V204.224H633.112V203.054H621.61ZM642.295 189.392V190.616H649.495V189.392H642.295ZM644.743 193.028V197.096H646.219V193.028H644.743ZM648.901 189.392V190.256C648.901 191.3 648.901 192.776 648.487 194.918L649.945 195.08C650.377 192.938 650.377 191.318 650.377 190.256V189.392H648.901ZM652.591 188.132V200.39H654.085V188.132H652.591ZM653.401 193.424V194.666H656.407V193.424H653.401ZM643.807 202.82V204.044H654.607V202.82H643.807ZM643.807 199.256V203.198H645.283V199.256H643.807ZM641.467 197.798C644.329 197.798 648.217 197.726 651.601 197.132L651.493 196.052C648.199 196.502 644.203 196.574 641.305 196.574L641.467 197.798ZM669.834 188.114V204.422H671.328V188.114H669.834ZM658.926 199.256V200.498H660.276C663.066 200.498 665.514 200.39 668.466 199.904L668.304 198.68C665.424 199.148 662.994 199.256 660.276 199.256H658.926ZM658.89 189.644V190.868H664.902V194.234H658.926V199.724H660.42V195.458H666.414V189.644H658.89ZM677.535 197.273L677.637 194.46L675.259 195.969L674.646 194.895L677.151 193.591L674.646 192.287L675.259 191.213L677.637 192.722L677.535 189.909H678.762L678.66 192.722L681.038 191.213L681.651 192.287L679.146 193.591L681.651 194.895L681.038 195.969L678.66 194.46L678.762 197.273H677.535ZM694.564 188.132V204.404H696.058V188.132H694.564ZM695.698 194.81V196.07H698.722V194.81H695.698ZM683.458 190.724V191.948H693.052V190.724H683.458ZM688.318 193.298C686.032 193.298 684.358 194.846 684.358 197.042C684.358 199.238 686.032 200.786 688.318 200.786C690.622 200.786 692.278 199.238 692.278 197.042C692.278 194.846 690.622 193.298 688.318 193.298ZM688.318 194.54C689.794 194.54 690.856 195.566 690.856 197.042C690.856 198.5 689.794 199.544 688.318 199.544C686.842 199.544 685.78 198.5 685.78 197.042C685.78 195.566 686.842 194.54 688.318 194.54ZM687.544 188.33V191.282H689.038V188.33H687.544ZM711.123 188.114V204.422H712.617V188.114H711.123ZM712.257 194.594V195.854H715.281V194.594H712.257ZM700.755 199.256V200.498H702.051C705.165 200.498 707.325 200.372 709.863 199.922L709.701 198.68C707.235 199.148 705.111 199.256 702.051 199.256H700.755ZM700.719 189.644V190.868H706.605V194.252H700.755V199.76H702.231V195.476H708.081V189.644H700.719Z" fill="black"/>
<path d="M640.722 283.114V299.422H642.216V283.114H640.722ZM633.63 284.374C631.236 284.374 629.508 286.588 629.508 290.044C629.508 293.518 631.236 295.732 633.63 295.732C636.042 295.732 637.77 293.518 637.77 290.044C637.77 286.588 636.042 284.374 633.63 284.374ZM633.63 285.724C635.232 285.724 636.33 287.416 636.33 290.044C636.33 292.69 635.232 294.418 633.63 294.418C632.046 294.418 630.93 292.69 630.93 290.044C630.93 287.416 632.046 285.724 633.63 285.724ZM645.454 291.52V292.744H660.214V291.52H645.454ZM647.326 283.528V284.698H656.848V286.282H647.362V289.54H648.838V287.38H658.306V283.528H647.326ZM647.362 288.964V290.134H658.666V288.964H647.362ZM647.434 294.22V299.188H658.324V294.22H647.434ZM656.866 295.408V297.982H648.892V295.408H656.866ZM669.375 283.402C665.775 283.402 663.651 284.41 663.651 286.228C663.651 288.046 665.775 289.054 669.375 289.054C672.957 289.054 675.099 288.046 675.099 286.228C675.099 284.41 672.957 283.402 669.375 283.402ZM669.375 284.536C672.021 284.536 673.551 285.148 673.551 286.228C673.551 287.308 672.021 287.92 669.375 287.92C666.711 287.92 665.181 287.308 665.181 286.228C665.181 285.148 666.711 284.536 669.375 284.536ZM662.013 290.134V291.34H676.719V290.134H662.013ZM663.795 292.726V293.878H673.371V295.318H663.831V298.378H665.307V296.398H674.847V292.726H663.795ZM663.831 298.054V299.224H675.333V298.054H663.831ZM695.496 283.132V299.404H696.99V283.132H695.496ZM690.726 284.878V285.13C690.726 289.45 688.548 292.906 683.85 295.174L684.642 296.38C690.078 293.716 692.202 289.594 692.202 284.878H690.726ZM684.588 284.878V286.102H691.374V284.878H684.588ZM700.193 292.078V293.302H714.953V292.078H700.193ZM702.065 283.546V284.716H711.587V286.39H702.101V289.684H703.577V287.488H713.045V283.546H702.065ZM702.101 289.198V290.368H713.405V289.198H702.101ZM706.817 289.81V292.69H708.311V289.81H706.817ZM701.831 294.544V295.768H711.659V299.26H713.153V294.544H701.831ZM719.756 292.273L719.858 289.46L717.48 290.969L716.866 289.895L719.372 288.591L716.866 287.287L717.48 286.213L719.858 287.722L719.756 284.909H720.983L720.881 287.722L723.258 286.213L723.872 287.287L721.366 288.591L723.872 289.895L723.258 290.969L720.881 289.46L720.983 292.273H719.756ZM728.756 292.273L728.858 289.46L726.48 290.969L725.866 289.895L728.372 288.591L725.866 287.287L726.48 286.213L728.858 287.722L728.756 284.909H729.983L729.881 287.722L732.258 286.213L732.872 287.287L730.366 288.591L732.872 289.895L732.258 290.969L729.881 289.46L729.983 292.273H728.756ZM745.785 283.132V299.404H747.279V283.132H745.785ZM746.919 289.81V291.07H749.943V289.81H746.919ZM734.679 285.724V286.948H744.273V285.724H734.679ZM739.539 288.298C737.253 288.298 735.579 289.846 735.579 292.042C735.579 294.238 737.253 295.786 739.539 295.786C741.843 295.786 743.499 294.238 743.499 292.042C743.499 289.846 741.843 288.298 739.539 288.298ZM739.539 289.54C741.015 289.54 742.077 290.566 742.077 292.042C742.077 293.5 741.015 294.544 739.539 294.544C738.063 294.544 737.001 293.5 737.001 292.042C737.001 290.566 738.063 289.54 739.539 289.54ZM738.765 283.33V286.282H740.259V283.33H738.765ZM762.344 283.114V299.422H763.838V283.114H762.344ZM763.478 289.594V290.854H766.502V289.594H763.478ZM751.976 294.256V295.498H753.272C756.386 295.498 758.546 295.372 761.084 294.922L760.922 293.68C758.456 294.148 756.332 294.256 753.272 294.256H751.976ZM751.94 284.644V285.868H757.826V289.252H751.976V294.76H753.452V290.476H759.302V284.644H751.94Z" fill="black"/>
<path d="M635.826 398.824V398.986C635.826 403.414 634.206 407.05 629.058 409.588L629.868 410.74C635.7 407.842 637.284 403.522 637.284 398.824H635.826ZM629.94 398.824V400.03H636.708V398.824H629.94ZM635.592 402.856L629.13 403.288L629.364 404.62L635.592 404.008V402.856ZM639.912 397.114V413.404H641.424V397.114H639.912ZM641.01 403.72V404.962H644.016V403.72H641.01ZM647.326 404.926V406.15H658.504V404.926H647.326ZM645.472 409.966V411.208H660.214V409.966H645.472ZM647.326 398.626V405.466H648.82V399.868H658.342V398.626H647.326ZM662.013 404.692V405.826H676.773V404.692H662.013ZM663.759 407.14V408.202H673.461V409.588H663.813V412.522H665.289V410.614H674.919V407.14H663.759ZM663.813 412.126V413.206H675.441V412.126H663.813ZM663.885 397.6V398.662H673.407V399.976H663.921V402.748H665.397V400.984H674.865V397.6H663.885ZM663.921 402.388V403.468H675.171V402.388H663.921ZM687.054 398.14V400.318C687.054 402.154 685.776 404.26 683.634 405.196L684.444 406.366C686.838 405.304 688.242 402.748 688.242 400.318V398.14H687.054ZM687.288 398.14V400.318C687.288 402.712 688.638 404.962 690.978 405.898L691.788 404.764C689.7 403.954 688.476 402.118 688.476 400.318V398.14H687.288ZM695.928 397.15V407.176H697.35V397.15H695.928ZM693.336 401.488V402.712H696.414V401.488H693.336ZM692.436 397.456V406.654H693.858V397.456H692.436ZM692.004 407.536C688.638 407.536 686.586 408.616 686.586 410.47C686.586 412.306 688.638 413.368 692.004 413.368C695.352 413.368 697.44 412.306 697.44 410.47C697.44 408.616 695.352 407.536 692.004 407.536ZM692.004 408.706C694.452 408.706 695.946 409.354 695.946 410.47C695.946 411.568 694.452 412.216 692.004 412.216C689.556 412.216 688.044 411.568 688.044 410.47C688.044 409.354 689.556 408.706 692.004 408.706ZM704.297 398.05V399.724C704.297 402.208 702.677 404.386 700.193 405.268L700.967 406.492C703.757 405.448 705.539 402.874 705.539 399.724V398.05H704.297ZM704.567 398.05V399.67C704.567 402.622 706.313 405.016 708.941 406.006L709.751 404.836C707.375 404.008 705.791 401.974 705.791 399.67V398.05H704.567ZM712.091 397.132V406.762H713.585V397.132H712.091ZM708.239 407.23C704.873 407.23 702.803 408.364 702.803 410.308C702.803 412.252 704.873 413.368 708.239 413.368C711.587 413.368 713.657 412.252 713.657 410.308C713.657 408.364 711.587 407.23 708.239 407.23ZM708.239 408.418C710.687 408.418 712.181 409.12 712.181 410.308C712.181 411.496 710.687 412.198 708.239 412.198C705.791 412.198 704.297 411.496 704.297 410.308C704.297 409.12 705.791 408.418 708.239 408.418ZM708.563 400.57V401.812H712.415V400.57H708.563ZM727.785 397.132V413.404H729.279V397.132H727.785ZM728.919 403.81V405.07H731.943V403.81H728.919ZM716.679 399.724V400.948H726.273V399.724H716.679ZM721.539 402.298C719.253 402.298 717.579 403.846 717.579 406.042C717.579 408.238 719.253 409.786 721.539 409.786C723.843 409.786 725.499 408.238 725.499 406.042C725.499 403.846 723.843 402.298 721.539 402.298ZM721.539 403.54C723.015 403.54 724.077 404.566 724.077 406.042C724.077 407.5 723.015 408.544 721.539 408.544C720.063 408.544 719.001 407.5 719.001 406.042C719.001 404.566 720.063 403.54 721.539 403.54ZM720.765 397.33V400.282H722.259V397.33H720.765ZM744.344 397.114V413.422H745.838V397.114H744.344ZM745.478 403.594V404.854H748.502V403.594H745.478ZM733.976 408.256V409.498H735.272C738.386 409.498 740.546 409.372 743.084 408.922L742.922 407.68C740.456 408.148 738.332 408.256 735.272 408.256H733.976ZM733.94 398.644V399.868H739.826V403.252H733.976V408.76H735.452V404.476H741.302V398.644H733.94Z" fill="black"/>
<path d="M562.119 497.573V498.729H571.197V497.573H562.119ZM566.658 499.511C564.448 499.511 562.969 500.599 562.969 502.299C562.969 503.982 564.448 505.053 566.658 505.053C568.834 505.053 570.33 503.982 570.33 502.299C570.33 500.599 568.834 499.511 566.658 499.511ZM566.658 500.616C568.035 500.616 568.987 501.262 568.987 502.299C568.987 503.302 568.035 503.965 566.658 503.965C565.247 503.965 564.312 503.302 564.312 502.299C564.312 501.262 565.247 500.616 566.658 500.616ZM572.591 495.958V505.563H574.002V495.958H572.591ZM573.611 500.191V501.364H576.28V500.191H573.611ZM564.023 506.396V507.552H572.591V511.326H574.002V506.396H564.023ZM565.944 495.873V498.219H567.355V495.873H565.944ZM579.475 505.172V511.122H589.794V505.172H588.383V506.957H580.869V505.172H579.475ZM580.869 508.045H588.383V509.983H580.869V508.045ZM577.707 502.962V504.101H591.596V502.962H577.707ZM583.946 496.128V496.808C583.946 498.746 581.277 500.395 578.506 500.769L579.016 501.874C582.178 501.398 585.153 499.477 585.153 496.808V496.128H583.946ZM584.167 496.128V496.808C584.167 499.443 587.159 501.398 590.287 501.874L590.814 500.769C588.077 500.395 585.374 498.712 585.374 496.808V496.128H584.167ZM605.025 495.958V511.326H606.385V495.958H605.025ZM602.441 502.214V503.37H605.399V502.214H602.441ZM601.54 496.298V510.544H602.866V496.298H601.54ZM594.094 497.811V506.685H595.505V497.811H594.094ZM594.094 506.124V507.348H595.08C596.729 507.348 598.497 507.263 600.588 506.855L600.435 505.631C598.429 506.022 596.661 506.124 595.08 506.124H594.094ZM612.418 501.16V504.067H613.812V501.16H612.418ZM618.062 501.16V504.067H619.456V501.16H618.062ZM608.984 503.557V504.696H622.873V503.557H608.984ZM615.92 505.852C612.622 505.852 610.65 506.821 610.65 508.572C610.65 510.323 612.622 511.309 615.92 511.309C619.218 511.309 621.19 510.323 621.19 508.572C621.19 506.821 619.218 505.852 615.92 505.852ZM615.92 506.94C618.334 506.94 619.762 507.535 619.762 508.572C619.762 509.626 618.334 510.204 615.92 510.204C613.523 510.204 612.078 509.626 612.078 508.572C612.078 507.535 613.523 506.94 615.92 506.94ZM615.937 496.23C612.588 496.23 610.531 497.301 610.531 499.103C610.531 500.888 612.588 501.942 615.937 501.942C619.269 501.942 621.343 500.888 621.343 499.103C621.343 497.301 619.269 496.23 615.937 496.23ZM615.937 497.335C618.385 497.335 619.898 497.981 619.898 499.103C619.898 500.208 618.385 500.854 615.937 500.854C613.489 500.854 611.976 500.208 611.976 499.103C611.976 497.981 613.489 497.335 615.937 497.335ZM631.576 496.213C628.176 496.213 626.17 497.165 626.17 498.882C626.17 500.599 628.176 501.551 631.576 501.551C634.959 501.551 636.982 500.599 636.982 498.882C636.982 497.165 634.959 496.213 631.576 496.213ZM631.576 497.284C634.075 497.284 635.52 497.862 635.52 498.882C635.52 499.902 634.075 500.48 631.576 500.48C629.06 500.48 627.615 499.902 627.615 498.882C627.615 497.862 629.06 497.284 631.576 497.284ZM624.623 502.571V503.71H638.512V502.571H624.623ZM626.306 505.019V506.107H635.35V507.467H626.34V510.357H627.734V508.487H636.744V505.019H626.306ZM626.34 510.051V511.156H637.203V510.051H626.34ZM656.246 495.958V511.326H657.657V495.958H656.246ZM651.741 497.607V497.845C651.741 501.925 649.684 505.189 645.247 507.331L645.995 508.47C651.129 505.954 653.135 502.061 653.135 497.607H651.741ZM645.944 497.607V498.763H652.353V497.607H645.944ZM660.682 504.407V505.563H674.622V504.407H660.682ZM662.45 496.349V497.454H671.443V499.035H662.484V502.146H663.878V500.072H672.82V496.349H662.45ZM662.484 501.687V502.792H673.16V501.687H662.484ZM666.938 502.265V504.985H668.349V502.265H666.938ZM662.229 506.736V507.892H671.511V511.19H672.922V506.736H662.229ZM679.158 504.591L679.254 501.935L677.009 503.359L676.429 502.345L678.796 501.114L676.429 499.882L677.009 498.868L679.254 500.293L679.158 497.636H680.317L680.22 500.293L682.466 498.868L683.046 499.882L680.679 501.114L683.046 502.345L682.466 503.359L680.22 501.935L680.317 504.591H679.158ZM687.658 504.591L687.754 501.935L685.509 503.359L684.929 502.345L687.296 501.114L684.929 499.882L685.509 498.868L687.754 500.293L687.658 497.636H688.817L688.72 500.293L690.966 498.868L691.546 499.882L689.179 501.114L691.546 502.345L690.966 503.359L688.72 501.935L688.817 504.591H687.658ZM703.741 495.958V511.326H705.152V495.958H703.741ZM704.812 502.265V503.455H707.668V502.265H704.812ZM693.252 498.406V499.562H702.313V498.406H693.252ZM697.842 500.837C695.683 500.837 694.102 502.299 694.102 504.373C694.102 506.447 695.683 507.909 697.842 507.909C700.018 507.909 701.582 506.447 701.582 504.373C701.582 502.299 700.018 500.837 697.842 500.837ZM697.842 502.01C699.236 502.01 700.239 502.979 700.239 504.373C700.239 505.75 699.236 506.736 697.842 506.736C696.448 506.736 695.445 505.75 695.445 504.373C695.445 502.979 696.448 502.01 697.842 502.01ZM697.111 496.145V498.933H698.522V496.145H697.111ZM719.38 495.941V511.343H720.791V495.941H719.38ZM720.451 502.061V503.251H723.307V502.061H720.451ZM709.588 506.464V507.637H710.812C713.753 507.637 715.793 507.518 718.19 507.093L718.037 505.92C715.708 506.362 713.702 506.464 710.812 506.464H709.588ZM709.554 497.386V498.542H715.113V501.738H709.588V506.94H710.982V502.894H716.507V497.386H709.554Z" fill="black"/>
<path d="M479.939 122.061C480.525 122.646 481.475 122.646 482.061 122.061L491.607 112.515C492.192 111.929 492.192 110.979 491.607 110.393C491.021 109.808 490.071 109.808 489.485 110.393L481 118.879L472.515 110.393C471.929 109.808 470.979 109.808 470.393 110.393C469.808 110.979 469.808 111.929 470.393 112.515L479.939 122.061ZM479.5 3V121H482.5V3H479.5Z" fill="black"/>
<path d="M479.939 472.061C480.525 472.646 481.475 472.646 482.061 472.061L491.607 462.515C492.192 461.929 492.192 460.979 491.607 460.393C491.021 459.808 490.071 459.808 489.485 460.393L481 468.879L472.515 460.393C471.929 459.808 470.979 459.808 470.393 460.393C469.808 460.979 469.808 461.929 470.393 462.515L479.939 472.061ZM479.5 229V471H482.5V229H479.5Z" fill="black"/>
<path d="M801.939 472.061C802.525 472.646 803.475 472.646 804.061 472.061L813.607 462.515C814.192 461.929 814.192 460.979 813.607 460.393C813.021 459.808 812.071 459.808 811.485 460.393L803 468.879L794.515 460.393C793.929 459.808 792.979 459.808 792.393 460.393C791.808 460.979 791.808 461.929 792.393 462.515L801.939 472.061ZM801.5 229V471H804.5V229H801.5Z" fill="black"/>
<path d="M727.061 149.061C727.646 148.475 727.646 147.525 727.061 146.939L717.515 137.393C716.929 136.808 715.979 136.808 715.393 137.393C714.808 137.979 714.808 138.929 715.393 139.515L723.879 148L715.393 156.485C714.808 157.071 714.808 158.021 715.393 158.607C715.979 159.192 716.929 159.192 717.515 158.607L727.061 149.061ZM559 149.5H726V146.5H559V149.5Z" fill="black"/>
<path d="M235.939 171.939C235.354 172.525 235.354 173.475 235.939 174.061L245.485 183.607C246.071 184.192 247.021 184.192 247.607 183.607C248.192 183.021 248.192 182.071 247.607 181.485L239.121 173L247.607 164.515C248.192 163.929 248.192 162.979 247.607 162.393C247.021 161.808 246.071 161.808 245.485 162.393L235.939 171.939ZM237 174.5H404V171.5H237V174.5Z" fill="black"/>
<path d="M727.061 182.061C727.646 181.475 727.646 180.525 727.061 179.939L717.515 170.393C716.929 169.808 715.979 169.808 715.393 170.393C714.808 170.979 714.808 171.929 715.393 172.515L723.879 181L715.393 189.485C714.808 190.071 714.808 191.021 715.393 191.607C715.979 192.192 716.929 192.192 717.515 191.607L727.061 182.061ZM559 182.5H726V179.5H559V182.5Z" fill="black"/>
<path d="M727.061 216.061C727.646 215.475 727.646 214.525 727.061 213.939L717.515 204.393C716.929 203.808 715.979 203.808 715.393 204.393C714.808 204.979 714.808 205.929 715.393 206.515L723.879 215L715.393 223.485C714.808 224.071 714.808 225.021 715.393 225.607C715.979 226.192 716.929 226.192 717.515 225.607L727.061 216.061ZM559 216.5H726V213.5H559V216.5Z" fill="black"/>
<path d="M727.475 228.729C727.326 227.915 726.544 227.375 725.729 227.525L712.451 229.96C711.636 230.109 711.097 230.891 711.246 231.705C711.395 232.52 712.177 233.06 712.992 232.91L724.795 230.746L726.96 242.549C727.109 243.364 727.891 243.903 728.705 243.754C729.52 243.605 730.06 242.823 729.91 242.008L727.475 228.729ZM560.235 471.852L727.235 229.852L724.765 228.148L557.765 470.148L560.235 471.852Z" fill="black"/>
<path d="M727.061 527.061C727.646 526.475 727.646 525.525 727.061 524.939L717.515 515.393C716.929 514.808 715.979 514.808 715.393 515.393C714.808 515.979 714.808 516.929 715.393 517.515L723.879 526L715.393 534.485C714.808 535.071 714.808 536.021 715.393 536.607C715.979 537.192 716.929 537.192 717.515 536.607L727.061 527.061ZM559 527.5H726V524.5H559V527.5Z" fill="black"/>
<rect x="82" y="118" width="155" height="111" fill="black"/>
<path d="M113.824 157.236V159.576H137.728V157.236H113.824ZM113.968 165.768V168.072H137.584V165.768H113.968ZM118.756 158.136V167.28H121.744V158.136H118.756ZM129.844 158.136V167.28H132.796V158.136H129.844ZM111.088 170.772V173.184H140.5V170.772H111.088ZM114.652 176.028V178.26H133.804V181.032H114.724V187.08H117.676V183.156H136.756V176.028H114.652ZM114.724 186.18V188.448H137.728V186.18H114.724ZM145.285 178.548V181.032H147.445C151.477 181.032 155.149 180.924 159.649 180.132L159.397 177.648C155.005 178.404 151.405 178.548 147.445 178.548H145.285ZM145.213 159.792V162.24H154.501V168.792H145.285V179.484H148.201V171.24H157.417V159.792H145.213ZM168.973 156.264V188.808H171.853V156.264H168.973ZM163.465 169.116V171.564H169.729V169.116H163.465ZM161.593 156.984V187.152H164.401V156.984H161.593ZM201.191 156.264V188.88H204.179V156.264H201.191ZM191.183 166.992V169.44H202.163V166.992H191.183ZM179.123 159.9V180.06H182.075V159.9H179.123ZM179.123 178.476V180.996H181.643C186.791 180.996 191.363 180.672 196.547 179.664L196.187 177.144C191.183 178.188 186.683 178.476 181.643 178.476H179.123Z" fill="white"/>
<path d="M729.886 25.2727L729.989 22.4602L727.611 23.9688L726.997 22.8949L729.503 21.5909L726.997 20.2869L727.611 19.2131L729.989 20.7216L729.886 17.9091H731.114L731.011 20.7216L733.389 19.2131L734.003 20.2869L731.497 21.5909L734.003 22.8949L733.389 23.9688L731.011 22.4602L731.114 25.2727H729.886ZM736.764 17.392V18.616H743.964V17.392H736.764ZM739.212 21.028V25.096H740.688V21.028H739.212ZM743.37 17.392V18.256C743.37 19.3 743.37 20.776 742.956 22.918L744.414 23.08C744.846 20.938 744.846 19.318 744.846 18.256V17.392H743.37ZM747.06 16.132V28.39H748.554V16.132H747.06ZM747.87 21.424V22.666H750.876V21.424H747.87ZM738.276 30.82V32.044H749.076V30.82H738.276ZM738.276 27.256V31.198H739.752V27.256H738.276ZM735.936 25.798C738.798 25.798 742.686 25.726 746.07 25.132L745.962 24.052C742.668 24.502 738.672 24.574 735.774 24.574L735.936 25.798ZM764.303 16.114V32.422H765.797V16.114H764.303ZM753.395 27.256V28.498H754.745C757.535 28.498 759.983 28.39 762.935 27.904L762.773 26.68C759.893 27.148 757.463 27.256 754.745 27.256H753.395ZM753.359 17.644V18.868H759.371V22.234H753.395V27.724H754.889V23.458H760.883V17.644H753.359ZM770.597 31.1023C770.282 31.1023 770.011 30.9893 769.786 30.7635C769.56 30.5376 769.447 30.267 769.447 29.9517C769.447 29.6364 769.56 29.3658 769.786 29.1399C770.011 28.9141 770.282 28.8011 770.597 28.8011C770.913 28.8011 771.183 28.9141 771.409 29.1399C771.635 29.3658 771.748 29.6364 771.748 29.9517C771.748 30.1605 771.695 30.3523 771.588 30.527C771.486 30.7017 771.347 30.8423 771.173 30.9489C771.002 31.0511 770.81 31.1023 770.597 31.1023ZM770.597 23.8153C770.282 23.8153 770.011 23.7024 769.786 23.4766C769.56 23.2507 769.447 22.9801 769.447 22.6648C769.447 22.3494 769.56 22.0788 769.786 21.853C770.011 21.6271 770.282 21.5142 770.597 21.5142C770.913 21.5142 771.183 21.6271 771.409 21.853C771.635 22.0788 771.748 22.3494 771.748 22.6648C771.748 22.8736 771.695 23.0653 771.588 23.2401C771.486 23.4148 771.347 23.5554 771.173 23.6619C771.002 23.7642 770.81 23.8153 770.597 23.8153ZM782.439 17.14V19.318C782.439 21.154 781.161 23.26 779.019 24.196L779.829 25.366C782.223 24.304 783.627 21.748 783.627 19.318V17.14H782.439ZM782.673 17.14V19.318C782.673 21.712 784.023 23.962 786.363 24.898L787.173 23.764C785.085 22.954 783.861 21.118 783.861 19.318V17.14H782.673ZM791.313 16.15V26.176H792.735V16.15H791.313ZM788.721 20.488V21.712H791.799V20.488H788.721ZM787.821 16.456V25.654H789.243V16.456H787.821ZM787.389 26.536C784.023 26.536 781.971 27.616 781.971 29.47C781.971 31.306 784.023 32.368 787.389 32.368C790.737 32.368 792.825 31.306 792.825 29.47C792.825 27.616 790.737 26.536 787.389 26.536ZM787.389 27.706C789.837 27.706 791.331 28.354 791.331 29.47C791.331 30.568 789.837 31.216 787.389 31.216C784.941 31.216 783.429 30.568 783.429 29.47C783.429 28.354 784.941 27.706 787.389 27.706ZM799.681 17.05V18.724C799.681 21.208 798.061 23.386 795.577 24.268L796.351 25.492C799.141 24.448 800.923 21.874 800.923 18.724V17.05H799.681ZM799.951 17.05V18.67C799.951 21.622 801.697 24.016 804.325 25.006L805.135 23.836C802.759 23.008 801.175 20.974 801.175 18.67V17.05H799.951ZM807.475 16.132V25.762H808.969V16.132H807.475ZM803.623 26.23C800.257 26.23 798.187 27.364 798.187 29.308C798.187 31.252 800.257 32.368 803.623 32.368C806.971 32.368 809.041 31.252 809.041 29.308C809.041 27.364 806.971 26.23 803.623 26.23ZM803.623 27.418C806.071 27.418 807.565 28.12 807.565 29.308C807.565 30.496 806.071 31.198 803.623 31.198C801.175 31.198 799.681 30.496 799.681 29.308C799.681 28.12 801.175 27.418 803.623 27.418ZM803.947 19.57V20.812H807.799V19.57H803.947ZM814.885 29.2102L814.782 29.9006C814.71 30.3864 814.599 30.9062 814.45 31.4602C814.305 32.0142 814.154 32.5362 813.996 33.0263C813.838 33.5163 813.708 33.9063 813.606 34.196H812.456C812.511 33.9233 812.583 33.5632 812.673 33.1158C812.762 32.6683 812.852 32.1676 812.941 31.6136C813.035 31.0639 813.112 30.5014 813.172 29.9261L813.248 29.2102H814.885ZM828.831 16.708V17.608C828.831 19.93 825.969 21.874 822.999 22.324L823.593 23.53C826.977 22.954 830.145 20.722 830.145 17.608V16.708H828.831ZM829.101 16.708V17.608C829.101 20.686 832.287 22.954 835.635 23.53L836.229 22.324C833.295 21.874 830.397 19.876 830.397 17.608V16.708H829.101ZM828.831 26.212V32.404H830.307V26.212H828.831ZM822.261 25.294V26.536H836.967V25.294H822.261ZM847.496 20.344V21.586H851.168V20.344H847.496ZM850.7 16.132V25.834H852.194V16.132H850.7ZM846.848 26.32C843.482 26.32 841.412 27.454 841.412 29.362C841.412 31.288 843.482 32.386 846.848 32.386C850.196 32.386 852.266 31.288 852.266 29.362C852.266 27.454 850.196 26.32 846.848 26.32ZM846.848 27.49C849.296 27.49 850.79 28.174 850.79 29.362C850.79 30.532 849.296 31.216 846.848 31.216C844.4 31.216 842.906 30.532 842.906 29.362C842.906 28.174 844.4 27.49 846.848 27.49ZM842.96 17.77V19.084C842.96 21.424 841.286 23.602 838.874 24.484L839.648 25.672C842.348 24.664 844.184 22.09 844.184 19.084V17.77H842.96ZM843.248 17.77V19.084C843.248 21.82 844.994 24.268 847.64 25.222L848.396 24.034C846.038 23.206 844.454 21.19 844.454 19.084V17.77H843.248ZM839.324 17.32V18.544H848.018V17.32H839.324ZM858.109 29.2102L858.007 29.9006C857.934 30.3864 857.824 30.9062 857.675 31.4602C857.53 32.0142 857.378 32.5362 857.221 33.0263C857.063 33.5163 856.933 33.9063 856.831 34.196H855.68C855.736 33.9233 855.808 33.5632 855.898 33.1158C855.987 32.6683 856.077 32.1676 856.166 31.6136C856.26 31.0639 856.336 30.5014 856.396 29.9261L856.473 29.2102H858.109ZM869.482 16.96V18.634C869.482 21.064 867.88 23.206 865.432 24.088L866.206 25.294C868.942 24.25 870.706 21.712 870.706 18.634V16.96H869.482ZM869.752 16.96V18.742C869.752 21.568 871.516 23.998 874.162 24.97L874.918 23.782C872.578 22.972 870.958 20.938 870.958 18.742V16.96H869.752ZM876.61 16.132V25.978H878.104V16.132H876.61ZM877.69 20.416V21.676H880.516V20.416H877.69ZM867.538 26.788V28.03H876.61V32.404H878.104V26.788H867.538ZM894.411 16.132V32.404H895.851V16.132H894.411ZM888.489 21.964V23.206H891.603V21.964H888.489ZM891.153 16.51V31.576H892.557V16.51H891.153ZM885.357 18.652V20.722C885.357 23.71 884.097 26.68 881.829 28.048L882.747 29.164C885.141 27.652 886.509 24.286 886.509 20.722V18.652H885.357ZM885.663 18.652V20.722C885.663 24.124 886.977 27.328 889.353 28.768L890.271 27.67C888.039 26.374 886.815 23.548 886.815 20.722V18.652H885.663ZM882.279 18.022V19.264H889.713V18.022H882.279ZM729.886 47.2727L729.989 44.4602L727.611 45.9688L726.997 44.8949L729.503 43.5909L726.997 42.2869L727.611 41.2131L729.989 42.7216L729.886 39.9091H731.114L731.011 42.7216L733.389 41.2131L734.003 42.2869L731.497 43.5909L734.003 44.8949L733.389 45.9688L731.011 44.4602L731.114 47.2727H729.886ZM738.886 47.2727L738.989 44.4602L736.611 45.9688L735.997 44.8949L738.503 43.5909L735.997 42.2869L736.611 41.2131L738.989 42.7216L738.886 39.9091H740.114L740.011 42.7216L742.389 41.2131L743.003 42.2869L740.497 43.5909L743.003 44.8949L742.389 45.9688L740.011 44.4602L740.114 47.2727H738.886ZM756.744 38.132V54.404H758.238V38.132H756.744ZM751.974 39.878V40.13C751.974 44.45 749.796 47.906 745.098 50.174L745.89 51.38C751.326 48.716 753.45 44.594 753.45 39.878H751.974ZM745.836 39.878V41.102H752.622V39.878H745.836ZM761.441 47.078V48.302H776.201V47.078H761.441ZM763.313 38.546V39.716H772.835V41.39H763.349V44.684H764.825V42.488H774.293V38.546H763.313ZM763.349 44.198V45.368H774.653V44.198H763.349ZM768.065 44.81V47.69H769.559V44.81H768.065ZM763.079 49.544V50.768H772.907V54.26H774.401V49.544H763.079ZM779.597 53.1023C779.282 53.1023 779.011 52.9893 778.786 52.7635C778.56 52.5376 778.447 52.267 778.447 51.9517C778.447 51.6364 778.56 51.3658 778.786 51.1399C779.011 50.9141 779.282 50.8011 779.597 50.8011C779.913 50.8011 780.183 50.9141 780.409 51.1399C780.635 51.3658 780.748 51.6364 780.748 51.9517C780.748 52.1605 780.695 52.3523 780.588 52.527C780.486 52.7017 780.347 52.8423 780.173 52.9489C780.002 53.0511 779.81 53.1023 779.597 53.1023ZM779.597 45.8153C779.282 45.8153 779.011 45.7024 778.786 45.4766C778.56 45.2507 778.447 44.9801 778.447 44.6648C778.447 44.3494 778.56 44.0788 778.786 43.853C779.011 43.6271 779.282 43.5142 779.597 43.5142C779.913 43.5142 780.183 43.6271 780.409 43.853C780.635 44.0788 780.748 44.3494 780.748 44.6648C780.748 44.8736 780.695 45.0653 780.588 45.2401C780.486 45.4148 780.347 45.5554 780.173 45.6619C780.002 45.7642 779.81 45.8153 779.597 45.8153ZM794.607 38.708V39.608C794.607 41.93 791.745 43.874 788.775 44.324L789.369 45.53C792.753 44.954 795.921 42.722 795.921 39.608V38.708H794.607ZM794.877 38.708V39.608C794.877 42.686 798.063 44.954 801.411 45.53L802.005 44.324C799.071 43.874 796.173 41.876 796.173 39.608V38.708H794.877ZM794.607 48.212V54.404H796.083V48.212H794.607ZM788.037 47.294V48.536H802.743V47.294H788.037ZM813.271 42.344V43.586H816.943V42.344H813.271ZM816.475 38.132V47.834H817.969V38.132H816.475ZM812.623 48.32C809.257 48.32 807.187 49.454 807.187 51.362C807.187 53.288 809.257 54.386 812.623 54.386C815.971 54.386 818.041 53.288 818.041 51.362C818.041 49.454 815.971 48.32 812.623 48.32ZM812.623 49.49C815.071 49.49 816.565 50.174 816.565 51.362C816.565 52.532 815.071 53.216 812.623 53.216C810.175 53.216 808.681 52.532 808.681 51.362C808.681 50.174 810.175 49.49 812.623 49.49ZM808.735 39.77V41.084C808.735 43.424 807.061 45.602 804.649 46.484L805.423 47.672C808.123 46.664 809.959 44.09 809.959 41.084V39.77H808.735ZM809.023 39.77V41.084C809.023 43.82 810.769 46.268 813.415 47.222L814.171 46.034C811.813 45.206 810.229 43.19 810.229 41.084V39.77H809.023ZM805.099 39.32V40.544H813.793V39.32H805.099ZM826.216 51.146V52.388H840.958V51.146H826.216ZM832.786 46.934V51.704H834.28V46.934H832.786ZM827.494 39.68V40.904H839.572V39.68H827.494ZM827.53 46.232V47.438H839.554V46.232H827.53ZM830.032 40.67V46.448H831.526V40.67H830.032ZM835.576 40.67V46.448H837.052V40.67H835.576ZM853.899 38.132V47.924H855.393V38.132H853.899ZM854.979 42.452V43.694H857.805V42.452H854.979ZM845.169 48.842V54.188H855.393V48.842H845.169ZM853.935 50.048V52.982H846.627V50.048H853.935ZM842.811 39.842V41.066H852.423V39.842H842.811ZM847.617 41.858C845.277 41.858 843.711 43.01 843.711 44.774C843.711 46.538 845.277 47.654 847.617 47.654C849.939 47.654 851.505 46.538 851.505 44.774C851.505 43.01 849.939 41.858 847.617 41.858ZM847.617 43.01C849.075 43.01 850.083 43.694 850.083 44.774C850.083 45.836 849.075 46.52 847.617 46.52C846.123 46.52 845.133 45.836 845.133 44.774C845.133 43.694 846.123 43.01 847.617 43.01ZM846.861 37.988V40.472H848.355V37.988H846.861Z" fill="black"/>
<rect x="404" y="471" width="155" height="111" fill="black"/>
<path d="M456.812 509.264V526.112H459.836V509.264H456.812ZM438.596 527.696V530.072H456.848V533.312H438.704V540.44H441.62V535.544H459.836V527.696H438.596ZM438.704 539.072V541.448H461.024V539.072H438.704ZM434.564 511.46V513.836H452.024V511.46H434.564ZM433.988 525.032C439.712 524.996 447.272 524.78 453.752 523.808L453.572 521.612C447.236 522.404 439.46 522.548 433.664 522.548L433.988 525.032ZM437.768 512.54V523.628H440.648V512.54H437.768ZM445.904 512.54V523.628H448.82V512.54H445.904ZM489.929 509.264V541.808H492.917V509.264H489.929ZM480.389 512.756V513.26C480.389 521.9 476.033 528.812 466.637 533.348L468.221 535.76C479.093 530.432 483.341 522.188 483.341 512.756H480.389ZM468.113 512.756V515.204H481.685V512.756H468.113ZM503.031 511.388V513.8H523.371V511.388H503.031ZM499.359 525.356V527.804H528.771V525.356H499.359ZM512.499 526.976V541.844H515.487V526.976H512.499ZM521.967 511.388V514.196C521.967 517.472 521.967 521.252 520.707 526.508L523.659 526.904C524.883 521.396 524.883 517.58 524.883 514.196V511.388H521.967Z" fill="white"/>
<path d="M159 527H157.5V528.5H159V527ZM160.061 227.939C159.475 227.354 158.525 227.354 157.939 227.939L148.393 237.485C147.808 238.071 147.808 239.021 148.393 239.607C148.979 240.192 149.929 240.192 150.515 239.607L159 231.121L167.485 239.607C168.071 240.192 169.021 240.192 169.607 239.607C170.192 239.021 170.192 238.071 169.607 237.485L160.061 227.939ZM404 525.5H159V528.5H404V525.5ZM160.5 527V229H157.5V527H160.5Z" fill="black"/>
<rect x="726" y="471" width="155" height="111" fill="black"/>
<path d="M786.007 512.648V512.972C786.007 521.828 782.767 529.1 772.471 534.176L774.091 536.48C785.755 530.684 788.923 522.044 788.923 512.648H786.007ZM774.235 512.648V515.06H787.771V512.648H774.235ZM785.539 520.712L772.615 521.576L773.083 524.24L785.539 523.016V520.712ZM794.179 509.228V541.808H797.203V509.228H794.179ZM796.375 522.44V524.924H802.387V522.44H796.375ZM809.008 524.852V527.3H831.364V524.852H809.008ZM805.3 534.932V537.416H834.784V534.932H805.3ZM809.008 512.252V525.932H811.996V514.736H831.04V512.252H809.008Z" fill="white"/>
<path d="M725.729 472.475C726.544 472.625 727.326 472.085 727.475 471.271L729.91 457.992C730.06 457.177 729.52 456.395 728.705 456.246C727.891 456.097 727.109 456.636 726.96 457.451L724.795 469.254L712.992 467.09C712.177 466.94 711.395 467.48 711.246 468.295C711.097 469.109 711.636 469.891 712.451 470.04L725.729 472.475ZM557.765 229.852L724.765 471.852L727.235 470.148L560.235 228.148L557.765 229.852Z" fill="black"/>
</svg>
