<svg version="1.1" xmlns="http://www.w3.org/2000/svg" viewBox="0 0 426 360" width="426" height="360" filter="invert(93%) hue-rotate(180deg)">
  <!-- svg-source:excalidraw -->
  
  <defs>
    <style class="style-fonts">
      @font-face {
        font-family: "Virgil";
        src: url("https://excalidraw.com/Virgil.woff2");
      }
      @font-face {
        font-family: "Cascadia";
        src: url("https://excalidraw.com/Cascadia.woff2");
      }
    </style>
    
  </defs>
  <rect x="0" y="0" width="426" height="360" fill="#ffffff"></rect><g stroke-linecap="round" transform="translate(11 10) rotate(0 56 56)"><path d="M65.4 0.14 C74.2 0.75, 83.68 5.96, 90.81 11.97 C97.94 17.98, 104.65 27.19, 108.21 36.19 C111.77 45.18, 113.64 56.67, 112.15 65.97 C110.66 75.26, 105.32 85.03, 99.26 91.98 C93.2 98.93, 84.5 104.43, 75.78 107.67 C67.06 110.9, 56.14 112.85, 46.93 111.37 C37.72 109.88, 27.81 104.77, 20.52 98.73 C13.23 92.7, 6.31 83.93, 3.18 75.17 C0.04 66.41, 0.2 55.38, 1.69 46.16 C3.19 36.94, 6.27 26.85, 12.13 19.84 C18 12.82, 27.4 7.13, 36.89 4.08 C46.39 1.02, 63.4 1.71, 69.1 1.51 C74.8 1.3, 71.4 1.91, 71.09 2.84 M34.25 4.93 C41.89 0.78, 54.07 -0.1, 63.19 1.22 C72.3 2.54, 81.55 7.16, 88.94 12.85 C96.34 18.55, 103.69 26.8, 107.55 35.37 C111.4 43.95, 113.05 54.99, 112.08 64.29 C111.12 73.59, 107.69 83.94, 101.77 91.17 C95.85 98.39, 85.66 104.38, 76.57 107.64 C67.48 110.89, 56.34 111.98, 47.23 110.69 C38.12 109.41, 29.29 105.34, 21.92 99.92 C14.56 94.5, 6.6 86.55, 3.05 78.18 C-0.5 69.81, -0.83 59.08, 0.63 49.71 C2.1 40.33, 6.44 29.33, 11.87 21.92 C17.29 14.51, 29.4 8.16, 33.19 5.25 C36.97 2.34, 33.82 3.99, 34.58 4.47" stroke="#1e1e1e" stroke-width="1" fill="none"></path></g><g transform="translate(60.0000274557018 48.40202025355336) rotate(0 6.9019927978515625 17.5)"><text x="6.9019927978515625" y="0" font-family="Virgil, Segoe UI Emoji" font-size="28px" fill="#1e1e1e" text-anchor="middle" style="white-space: pre;" direction="ltr" dominant-baseline="text-before-edge">p</text></g><g stroke-linecap="round" transform="translate(304 10) rotate(0 56 56)"><path d="M35.36 5.08 C43.28 1.01, 54.08 -0.09, 63.21 0.86 C72.33 1.8, 82.68 5.1, 90.12 10.72 C97.55 16.34, 104.23 25.92, 107.82 34.58 C111.4 43.24, 112.93 53.52, 111.64 62.68 C110.36 71.83, 105.65 82.11, 100.12 89.5 C94.59 96.9, 87.14 103.47, 78.48 107.05 C69.83 110.63, 57.51 111.96, 48.19 110.96 C38.87 109.95, 29.76 106.57, 22.56 101.02 C15.35 95.47, 8.69 86.43, 4.97 77.65 C1.24 68.87, -0.88 57.58, 0.22 48.35 C1.32 39.11, 5.65 29.55, 11.56 22.22 C17.47 14.9, 31.03 7.49, 35.67 4.4 C40.31 1.3, 38.86 2.94, 39.4 3.65 M69.39 2.46 C78.47 3.77, 88.52 10.16, 95.49 16.7 C102.46 23.23, 108.86 32.86, 111.2 41.66 C113.53 50.46, 112.22 60.73, 109.49 69.47 C106.76 78.21, 101.16 87.45, 94.82 94.1 C88.48 100.75, 80.37 106.52, 71.43 109.35 C62.5 112.18, 50.25 113.1, 41.22 111.1 C32.18 109.09, 23.69 103.91, 17.23 97.3 C10.76 90.68, 5.27 80.41, 2.44 71.43 C-0.38 62.45, -1.87 52.61, 0.27 43.42 C2.41 34.22, 8.41 23.35, 15.31 16.25 C22.2 9.16, 32.74 3.12, 41.62 0.85 C50.51 -1.41, 63.97 2.22, 68.61 2.66 C73.26 3.1, 69.65 2.53, 69.49 3.48" stroke="#1e1e1e" stroke-width="1" fill="none"></path></g><g transform="translate(352.25802306117055 48.40202025355336) rotate(0 7.643997192382869 17.5)"><text x="7.6439971923828125" y="0" font-family="Virgil, Segoe UI Emoji" font-size="28px" fill="#1e1e1e" text-anchor="middle" style="white-space: pre;" direction="ltr" dominant-baseline="text-before-edge">q</text></g><g stroke-linecap="round" transform="translate(10 238) rotate(0 56 56)"><path d="M63.52 1.34 C72.41 1.55, 82.06 5.63, 89.28 11.22 C96.5 16.82, 103.03 26.27, 106.84 34.94 C110.64 43.61, 112.97 54.06, 112.12 63.25 C111.27 72.44, 107.49 82.82, 101.74 90.08 C95.99 97.34, 86.34 103.26, 77.61 106.81 C68.88 110.37, 58.45 112.56, 49.37 111.43 C40.28 110.29, 30.58 105.53, 23.09 99.98 C15.61 94.44, 8.13 86.72, 4.48 78.17 C0.84 69.63, 0.14 57.92, 1.21 48.73 C2.29 39.53, 5.6 30.27, 10.95 23.01 C16.3 15.75, 22.93 8.67, 33.31 5.17 C43.69 1.67, 64.65 1.44, 73.24 2.01 C81.83 2.59, 84.95 7.7, 84.83 8.61 M74.95 2.45 C83.68 4.81, 92.8 12.73, 98.68 19.96 C104.55 27.19, 108.68 36.53, 110.19 45.83 C111.71 55.13, 110.97 66.99, 107.78 75.75 C104.59 84.52, 98.33 92.46, 91.04 98.39 C83.74 104.33, 73.21 109.71, 64.03 111.38 C54.84 113.06, 44.36 111.81, 35.92 108.44 C27.48 105.08, 19.3 98.21, 13.39 91.2 C7.47 84.19, 2.17 75.32, 0.42 66.37 C-1.33 57.43, -0.46 46.5, 2.9 37.55 C6.26 28.59, 13.13 18.77, 20.59 12.66 C28.05 6.54, 38.47 2.6, 47.64 0.87 C56.81 -0.86, 71.11 1.54, 75.62 2.29 C80.12 3.03, 74.94 4.06, 74.67 5.33" stroke="#1e1e1e" stroke-width="1" fill="none"></path></g><g transform="translate(59.0000274557018 276.40202025355336) rotate(0 6.9019927978515625 17.5)"><text x="6.9019927978515625" y="0" font-family="Virgil, Segoe UI Emoji" font-size="28px" fill="#1e1e1e" text-anchor="middle" style="white-space: pre;" direction="ltr" dominant-baseline="text-before-edge">p</text></g><g stroke-linecap="round" transform="translate(303 237) rotate(0 56 56)"><path d="M50.3 0.01 C59 -1.78, 70.73 0.74, 79.15 4.79 C87.57 8.84, 95.52 16.56, 100.84 24.31 C106.16 32.07, 110.12 42.08, 111.08 51.3 C112.04 60.52, 110.25 71.26, 106.57 79.66 C102.9 88.05, 96.61 96.23, 89.02 101.65 C81.44 107.08, 70.53 111.2, 61.06 112.21 C51.58 113.21, 40.5 111.57, 32.18 107.68 C23.85 103.79, 16.3 96.5, 11.11 88.84 C5.92 81.19, 2.18 71.12, 1.03 61.74 C-0.12 52.37, 0.61 41.04, 4.21 32.58 C7.81 24.13, 14.53 16.43, 22.62 11.02 C30.71 5.6, 47.37 1.8, 52.77 0.11 C58.17 -1.58, 55.11 -0.1, 55.03 0.88 M63.58 1.71 C72.65 2.11, 84.77 5.28, 91.98 10.68 C99.19 16.09, 103.83 25.19, 106.82 34.15 C109.81 43.1, 111.16 54.85, 109.93 64.4 C108.69 73.96, 104.78 84.11, 99.41 91.51 C94.04 98.9, 86.26 105.58, 77.71 108.75 C69.16 111.92, 57.58 111.99, 48.12 110.52 C38.66 109.05, 28.5 105.68, 20.93 99.93 C13.36 94.18, 6.33 84.62, 2.7 76.01 C-0.93 67.41, -2.29 57.28, -0.86 48.28 C0.57 39.28, 5.47 29.62, 11.26 22 C17.06 14.37, 25.3 5.97, 33.91 2.53 C42.53 -0.91, 58.11 1.64, 62.96 1.36 C67.81 1.09, 63.18 0.13, 63.01 0.86" stroke="#1e1e1e" stroke-width="1" fill="none"></path></g><g transform="translate(351.25802306117055 275.40202025355336) rotate(0 7.643997192382869 17.5)"><text x="7.6439971923828125" y="0" font-family="Virgil, Segoe UI Emoji" font-size="28px" fill="#1e1e1e" text-anchor="middle" style="white-space: pre;" direction="ltr" dominant-baseline="text-before-edge">q</text></g><g stroke-linecap="round"><g transform="translate(122 288) rotate(0 89.76893519201315 0.6136204341706275)"><path d="M0.91 -1.15 C16.01 -0.94, 61.06 -0.3, 90.84 0.06 C120.63 0.43, 164.89 0.94, 179.61 1.04 M-0.08 0.86 C14.92 1.29, 60.55 0.86, 90.34 1.11 C120.12 1.36, 163.87 2.3, 178.65 2.38" stroke="#1e1e1e" stroke-width="1" fill="none"></path></g></g><mask></mask><g transform="translate(169 197) rotate(0 43.57798767089844 22.5)"><text x="0" y="0" font-family="Virgil, Segoe UI Emoji" font-size="36px" fill="#1e1e1e" text-anchor="start" style="white-space: pre;" direction="ltr" dominant-baseline="text-before-edge">Union</text></g></svg>