<svg version="1.1" xmlns="http://www.w3.org/2000/svg" viewBox="0 0 1036.6438598632812 437.0250817697495" width="1036.6438598632812" height="437.0250817697495" filter="invert(93%) hue-rotate(180deg)">
  <!-- svg-source:excalidraw -->
  
  <defs>
    <style class="style-fonts">
      @font-face {
        font-family: "Virgil";
        src: url("https://excalidraw.com/Virgil.woff2");
      }
      @font-face {
        font-family: "Cascadia";
        src: url("https://excalidraw.com/Cascadia.woff2");
      }
    </style>
    
  </defs>
  <rect x="0" y="0" width="1036.6438598632812" height="437.0250817697495" fill="#ffffff"></rect><g stroke-linecap="round" transform="translate(108 94) rotate(0 56 56)"><path d="M65.4 0.14 C74.2 0.75, 83.68 5.96, 90.81 11.97 C97.94 17.98, 104.65 27.19, 108.21 36.19 C111.77 45.18, 113.64 56.67, 112.15 65.97 C110.66 75.26, 105.32 85.03, 99.26 91.98 C93.2 98.93, 84.5 104.43, 75.78 107.67 C67.06 110.9, 56.14 112.85, 46.93 111.37 C37.72 109.88, 27.81 104.77, 20.52 98.73 C13.23 92.7, 6.31 83.93, 3.18 75.17 C0.04 66.41, 0.2 55.38, 1.69 46.16 C3.19 36.94, 6.27 26.85, 12.13 19.84 C18 12.82, 27.4 7.13, 36.89 4.08 C46.39 1.02, 63.4 1.71, 69.1 1.51 C74.8 1.3, 71.4 1.91, 71.09 2.84 M34.25 4.93 C41.89 0.78, 54.07 -0.1, 63.19 1.22 C72.3 2.54, 81.55 7.16, 88.94 12.85 C96.34 18.55, 103.69 26.8, 107.55 35.37 C111.4 43.95, 113.05 54.99, 112.08 64.29 C111.12 73.59, 107.69 83.94, 101.77 91.17 C95.85 98.39, 85.66 104.38, 76.57 107.64 C67.48 110.89, 56.34 111.98, 47.23 110.69 C38.12 109.41, 29.29 105.34, 21.92 99.92 C14.56 94.5, 6.6 86.55, 3.05 78.18 C-0.5 69.81, -0.83 59.08, 0.63 49.71 C2.1 40.33, 6.44 29.33, 11.87 21.92 C17.29 14.51, 29.4 8.16, 33.19 5.25 C36.97 2.34, 33.82 3.99, 34.58 4.47" stroke="#1e1e1e" stroke-width="1" fill="none"></path></g><g transform="translate(154.2700240987682 132.40202025355336) rotate(0 9.631996154785156 17.5)"><text x="9.631996154785156" y="0" font-family="Virgil, Segoe UI Emoji" font-size="28px" fill="#1e1e1e" text-anchor="middle" style="white-space: pre;" direction="ltr" dominant-baseline="text-before-edge">0</text></g><g stroke-linecap="round" transform="translate(287 93) rotate(0 56 56)"><path d="M53.74 0.24 C62.65 -0.9, 74.42 1.52, 82.63 5.79 C90.84 10.07, 98.07 17.69, 103 25.89 C107.94 34.09, 111.96 45.74, 112.23 54.98 C112.51 64.23, 109.13 73.29, 104.67 81.34 C100.21 89.39, 93.19 98.08, 85.49 103.28 C77.79 108.48, 67.75 112.08, 58.45 112.52 C49.14 112.96, 38.09 110.44, 29.67 105.94 C21.24 101.44, 12.89 93.49, 7.88 85.51 C2.87 77.53, -0.06 67.45, -0.4 58.07 C-0.73 48.69, 1.33 37.63, 5.85 29.22 C10.38 20.8, 18.02 12.43, 26.74 7.58 C35.47 2.72, 52.3 1.08, 58.2 0.08 C64.11 -0.92, 62.36 0.53, 62.15 1.58 M38.81 3.71 C46.92 -0.14, 56.55 -2.17, 65.62 -0.39 C74.69 1.39, 85.96 7.94, 93.22 14.4 C100.47 20.85, 106.31 29.89, 109.14 38.36 C111.97 46.82, 112.04 56.41, 110.19 65.19 C108.35 73.97, 103.87 83.67, 98.06 91.05 C92.25 98.42, 84.16 106.2, 75.33 109.43 C66.5 112.65, 54.3 112.21, 45.08 110.4 C35.87 108.6, 27.07 104.39, 20.05 98.61 C13.02 92.82, 6.03 84.75, 2.95 75.72 C-0.12 66.68, -0.08 53.87, 1.61 44.39 C3.3 34.92, 7.11 25.66, 13.11 18.89 C19.11 12.12, 33.27 6.15, 37.62 3.79 C41.96 1.44, 38.97 4.09, 39.16 4.75" stroke="#1e1e1e" stroke-width="1" fill="none"></path></g><g transform="translate(339.10802153529164 131.40202025355336) rotate(0 3.7939987182617188 17.5)"><text x="3.7939987182617188" y="0" font-family="Virgil, Segoe UI Emoji" font-size="28px" fill="#1e1e1e" text-anchor="middle" style="white-space: pre;" direction="ltr" dominant-baseline="text-before-edge">1</text></g><g stroke-linecap="round" transform="translate(463 96) rotate(0 56 56)"><path d="M53.44 0.93 C62.29 -0.57, 73.29 1.34, 81.59 5.35 C89.89 9.37, 98.26 16.85, 103.21 25.01 C108.17 33.17, 110.79 44.88, 111.34 54.3 C111.9 63.72, 110.63 73.22, 106.54 81.54 C102.45 89.86, 95 99.27, 86.82 104.2 C78.64 109.13, 66.78 110.94, 57.46 111.12 C48.14 111.29, 38.98 109.35, 30.91 105.26 C22.84 101.17, 14.12 94.33, 9.05 86.59 C3.97 78.85, 0.77 68.21, 0.45 58.8 C0.13 49.4, 3.01 38.51, 7.15 30.16 C11.28 21.81, 16.58 13.65, 25.25 8.7 C33.92 3.76, 52.79 1.53, 59.15 0.5 C65.51 -0.52, 63.44 1.74, 63.39 2.57 M67.01 -0.2 C75.79 0.52, 85.26 7.2, 92.41 13.19 C99.56 19.17, 106.81 26.88, 109.92 35.73 C113.03 44.58, 112.79 56.7, 111.05 66.3 C109.32 75.9, 105.49 86.16, 99.5 93.31 C93.51 100.47, 84.14 106.22, 75.11 109.22 C66.09 112.22, 54.64 113.3, 45.34 111.32 C36.05 109.34, 26.36 103.63, 19.35 97.34 C12.34 91.05, 6.47 82.24, 3.27 73.57 C0.07 64.91, -1.32 54.23, 0.15 45.35 C1.63 36.47, 6.14 27.24, 12.11 20.29 C18.08 13.33, 26.74 6.79, 35.97 3.62 C45.2 0.45, 62.41 1.58, 67.51 1.26 C72.62 0.93, 66.87 0.79, 66.61 1.66" stroke="#1e1e1e" stroke-width="1" fill="none"></path></g><g transform="translate(508.93402556361184 134.40202025355336) rotate(0 9.967994689941406 17.5)"><text x="9.967994689941406" y="0" font-family="Virgil, Segoe UI Emoji" font-size="28px" fill="#1e1e1e" text-anchor="middle" style="white-space: pre;" direction="ltr" dominant-baseline="text-before-edge">2</text></g><g stroke-linecap="round" transform="translate(645 96) rotate(0 56 56)"><path d="M36.56 2.49 C44.46 -1.02, 56.52 -0.25, 65.67 1.65 C74.82 3.54, 84.44 7.86, 91.46 13.86 C98.48 19.86, 104.46 29.14, 107.78 37.64 C111.1 46.15, 112.77 55.71, 111.36 64.9 C109.95 74.09, 105.44 85.42, 99.3 92.78 C93.16 100.13, 83.55 105.81, 74.53 109.03 C65.51 112.24, 54.24 113.67, 45.19 112.06 C36.14 110.46, 27.16 105.4, 20.22 99.39 C13.28 93.38, 6.67 84.78, 3.57 76 C0.46 67.21, -0.17 55.92, 1.58 46.69 C3.33 37.46, 7.02 28.31, 14.09 20.6 C21.15 12.89, 37.92 3.72, 43.98 0.44 C50.03 -2.85, 50.19 -0.13, 50.41 0.88 M77.43 3.5 C85.75 6.45, 95.16 15.29, 100.91 22.97 C106.67 30.65, 110.6 40.64, 111.95 49.57 C113.3 58.51, 112.93 67.95, 109.03 76.57 C105.12 85.19, 96.24 95.52, 88.53 101.3 C80.82 107.07, 71.93 110.28, 62.77 111.22 C53.61 112.17, 42.08 110.5, 33.55 106.96 C25.02 103.43, 16.97 97.36, 11.58 90.03 C6.18 82.69, 2.28 71.96, 1.2 62.94 C0.12 53.92, 1.58 44.68, 5.12 35.91 C8.65 27.14, 15.07 16.37, 22.4 10.31 C29.74 4.25, 39.78 0.63, 49.11 -0.45 C58.44 -1.53, 73.85 2.65, 78.39 3.84 C82.92 5.02, 76.79 5.54, 76.33 6.64" stroke="#1e1e1e" stroke-width="1" fill="none"></path></g><g transform="translate(691.368023671522 134.40202025355336) rotate(0 9.53399658203125 17.5)"><text x="9.53399658203125" y="0" font-family="Virgil, Segoe UI Emoji" font-size="28px" fill="#1e1e1e" text-anchor="middle" style="white-space: pre;" direction="ltr" dominant-baseline="text-before-edge">3</text></g><g stroke-linecap="round" transform="translate(830 96) rotate(0 56 56)"><path d="M35.36 5.08 C43.28 1.01, 54.08 -0.09, 63.21 0.86 C72.33 1.8, 82.68 5.1, 90.12 10.72 C97.55 16.34, 104.23 25.92, 107.82 34.58 C111.4 43.24, 112.93 53.52, 111.64 62.68 C110.36 71.83, 105.65 82.11, 100.12 89.5 C94.59 96.9, 87.14 103.47, 78.48 107.05 C69.83 110.63, 57.51 111.96, 48.19 110.96 C38.87 109.95, 29.76 106.57, 22.56 101.02 C15.35 95.47, 8.69 86.43, 4.97 77.65 C1.24 68.87, -0.88 57.58, 0.22 48.35 C1.32 39.11, 5.65 29.55, 11.56 22.22 C17.47 14.9, 31.03 7.49, 35.67 4.4 C40.31 1.3, 38.86 2.94, 39.4 3.65 M69.39 2.46 C78.47 3.77, 88.52 10.16, 95.49 16.7 C102.46 23.23, 108.86 32.86, 111.2 41.66 C113.53 50.46, 112.22 60.73, 109.49 69.47 C106.76 78.21, 101.16 87.45, 94.82 94.1 C88.48 100.75, 80.37 106.52, 71.43 109.35 C62.5 112.18, 50.25 113.1, 41.22 111.1 C32.18 109.09, 23.69 103.91, 17.23 97.3 C10.76 90.68, 5.27 80.41, 2.44 71.43 C-0.38 62.45, -1.87 52.61, 0.27 43.42 C2.41 34.22, 8.41 23.35, 15.31 16.25 C22.2 9.16, 32.74 3.12, 41.62 0.85 C50.51 -1.41, 63.97 2.22, 68.61 2.66 C73.26 3.1, 69.65 2.53, 69.49 3.48" stroke="#1e1e1e" stroke-width="1" fill="none"></path></g><g transform="translate(876.9420211690806 134.40202025355336) rotate(0 8.959999084472656 17.5)"><text x="8.959999084472656" y="0" font-family="Virgil, Segoe UI Emoji" font-size="28px" fill="#1e1e1e" text-anchor="middle" style="white-space: pre;" direction="ltr" dominant-baseline="text-before-edge">4</text></g><g stroke-linecap="round"><g transform="translate(88 368) rotate(0 441.3096421731356 -0.12027043174902019)"><path d="M-0.39 -1.2 C146.33 -1.11, 733.69 -0.56, 880.88 -0.55 M1.6 0.79 C148.64 1.12, 736.21 0.9, 883.01 0.69" stroke="#1e1e1e" stroke-width="1" fill="none"></path></g></g><mask></mask><g stroke-linecap="round"><g transform="translate(250 316) rotate(0 -0.6435877020185785 54.372600633706895)"><path d="M-0.06 -0.5 C-0.18 17.87, 0.29 90.83, 0.32 109.35 M-1.55 -1.8 C-1.9 16.78, -0.62 92.15, -0.46 110.55" stroke="#1e1e1e" stroke-width="1" fill="none"></path></g></g><mask></mask><g stroke-linecap="round"><g transform="translate(434 316) rotate(0 -0.06622102461756185 54.865590517148405)"><path d="M-0.92 0.11 C-0.91 18.61, -0.19 92.3, 0.15 110.61 M0.79 -0.88 C0.66 17.31, -0.74 90.12, -0.72 108.81" stroke="#1e1e1e" stroke-width="1" fill="none"></path></g></g><mask></mask><g stroke-linecap="round"><g transform="translate(611 316) rotate(0 0.14544019984782608 55.214000229146336)"><path d="M0.39 0.7 C0.48 18.94, 1.28 91.1, 1.14 109.26 M-0.87 0.02 C-0.89 18.42, 0.89 91.94, 0.79 110.41" stroke="#1e1e1e" stroke-width="1" fill="none"></path></g></g><mask></mask><g stroke-linecap="round"><g transform="translate(793 316) rotate(0 -0.3603309406992139 55.21005119211037)"><path d="M0.65 0.61 C0.42 18.87, -0.16 92.49, -0.27 110.54 M-0.47 -0.12 C-0.97 17.7, -1.31 90.41, -1.37 108.71" stroke="#1e1e1e" stroke-width="1" fill="none"></path></g></g><mask></mask><g stroke-linecap="round"><g transform="translate(91.00000000000006 316) rotate(0 -0.3014509495161519 54.78341931588017)"><path d="M-0.7 -0.27 C-0.79 18.2, -0.79 92.54, -0.52 111.03 M1.13 -1.46 C0.84 16.68, -1.65 91.09, -1.73 109.44" stroke="#1e1e1e" stroke-width="1" fill="none"></path></g></g><mask></mask><g transform="translate(10 352) rotate(0 24.905982971191406 17.5)"><text x="0" y="0" font-family="Virgil, Segoe UI Emoji" font-size="28px" fill="#1e1e1e" text-anchor="start" style="white-space: pre;" direction="ltr" dominant-baseline="text-before-edge">id[]</text></g><g transform="translate(156 320) rotate(0 9.631996154785156 17.5)"><text x="0" y="0" font-family="Virgil, Segoe UI Emoji" font-size="28px" fill="#1e1e1e" text-anchor="start" style="white-space: pre;" direction="ltr" dominant-baseline="text-before-edge">0</text></g><g transform="translate(340 320) rotate(0 3.7939987182617188 17.5)"><text x="0" y="0" font-family="Virgil, Segoe UI Emoji" font-size="28px" fill="#1e1e1e" text-anchor="start" style="white-space: pre;" direction="ltr" dominant-baseline="text-before-edge">1</text></g><g transform="translate(513 319) rotate(0 9.967994689941406 17.5)"><text x="0" y="0" font-family="Virgil, Segoe UI Emoji" font-size="28px" fill="#1e1e1e" text-anchor="start" style="white-space: pre;" direction="ltr" dominant-baseline="text-before-edge">2</text></g><g transform="translate(694 319) rotate(0 9.53399658203125 17.5)"><text x="0" y="0" font-family="Virgil, Segoe UI Emoji" font-size="28px" fill="#1e1e1e" text-anchor="start" style="white-space: pre;" direction="ltr" dominant-baseline="text-before-edge">3</text></g><g transform="translate(877 319) rotate(0 8.959999084472656 17.5)"><text x="0" y="0" font-family="Virgil, Segoe UI Emoji" font-size="28px" fill="#1e1e1e" text-anchor="start" style="white-space: pre;" direction="ltr" dominant-baseline="text-before-edge">4</text></g><g transform="translate(162 382) rotate(0 3.7939987182617188 17.5)"><text x="0" y="0" font-family="Virgil, Segoe UI Emoji" font-size="28px" fill="#1e1e1e" text-anchor="start" style="white-space: pre;" direction="ltr" dominant-baseline="text-before-edge">1</text></g><g transform="translate(342 382) rotate(0 3.7939987182617188 17.5)"><text x="0" y="0" font-family="Virgil, Segoe UI Emoji" font-size="28px" fill="#1e1e1e" text-anchor="start" style="white-space: pre;" direction="ltr" dominant-baseline="text-before-edge">1</text></g><g transform="translate(515 381) rotate(0 3.7939987182617188 17.5)"><text x="0" y="0" font-family="Virgil, Segoe UI Emoji" font-size="28px" fill="#1e1e1e" text-anchor="start" style="white-space: pre;" direction="ltr" dominant-baseline="text-before-edge">1</text></g><g transform="translate(700 381) rotate(0 3.7939987182617188 17.5)"><text x="0" y="0" font-family="Virgil, Segoe UI Emoji" font-size="28px" fill="#1e1e1e" text-anchor="start" style="white-space: pre;" direction="ltr" dominant-baseline="text-before-edge">1</text></g><g transform="translate(879 381) rotate(0 8.959999084472656 17.5)"><text x="0" y="0" font-family="Virgil, Segoe UI Emoji" font-size="28px" fill="#1e1e1e" text-anchor="start" style="white-space: pre;" direction="ltr" dominant-baseline="text-before-edge">4</text></g><g transform="translate(704 251) rotate(0 161.32192993164062 17.5)"><text x="0" y="0" font-family="Virgil, Segoe UI Emoji" font-size="28px" fill="#e03131" text-anchor="start" style="white-space: pre;" direction="ltr" dominant-baseline="text-before-edge">connected(3, 4) ? false</text></g><g stroke-linecap="round"><g transform="translate(220 146) rotate(0 34.51402056537569 -0.15188273870558078)"><path d="M0.94 0.5 C11.9 0.7, 55.58 0.91, 66.92 0.68 M-0.03 -0.28 C11.2 -0.39, 57.6 -1.13, 69.06 -1.08" stroke="#1e1e1e" stroke-width="1" fill="none"></path></g></g><mask></mask><g stroke-linecap="round"><g transform="translate(575 149) rotate(0 34.19135704912247 0.880337984820784)"><path d="M0.07 -0.55 C11.88 -0.49, 58.22 0.76, 69.74 0.82 M-1.36 1.77 C10.37 1.98, 56.49 2.47, 68.66 2.26" stroke="#1e1e1e" stroke-width="1" fill="none"></path></g></g><mask></mask><g stroke-linecap="round"><g transform="translate(399 148) rotate(0 31.56535048075017 0.0765085437019195)"><path d="M-0.11 -0.86 C10.65 -0.97, 53.82 -1.35, 64.76 -1.02 M-1.63 1.3 C8.93 1.33, 52.58 0.31, 63.68 -0.01" stroke="#1e1e1e" stroke-width="1" fill="none"></path></g></g><mask></mask><g transform="translate(322 10) rotate(0 156.44993591308594 17.5)"><text x="0" y="0" font-family="Virgil, Segoe UI Emoji" font-size="28px" fill="#e03131" text-anchor="start" style="white-space: pre;" direction="ltr" dominant-baseline="text-before-edge">connected(0, 3) ? true</text></g></svg>