<svg version="1.1" xmlns="http://www.w3.org/2000/svg" viewBox="0 0 1310.0109480626322 842.2342896429022" width="1310.0109480626322" height="842.2342896429022" filter="invert(93%) hue-rotate(180deg)">
  <!-- svg-source:excalidraw -->
  
  <defs>
    <style class="style-fonts">
      @font-face {
        font-family: "Virgil";
        src: url("https://excalidraw.com/Virgil.woff2");
      }
      @font-face {
        font-family: "Cascadia";
        src: url("https://excalidraw.com/Cascadia.woff2");
      }
    </style>
    
  </defs>
  <rect x="0" y="0" width="1310.0109480626322" height="842.2342896429022" fill="#ffffff"></rect><g stroke-linecap="round" transform="translate(650.2857142857142 390.42857142857133) rotate(0 56 56)"><path d="M65.4 0.14 C74.2 0.75, 83.68 5.96, 90.81 11.97 C97.94 17.98, 104.65 27.19, 108.21 36.19 C111.77 45.18, 113.64 56.67, 112.15 65.97 C110.66 75.26, 105.32 85.03, 99.26 91.98 C93.2 98.93, 84.5 104.43, 75.78 107.67 C67.06 110.9, 56.14 112.85, 46.93 111.37 C37.72 109.88, 27.81 104.77, 20.52 98.73 C13.23 92.7, 6.31 83.93, 3.18 75.17 C0.04 66.41, 0.2 55.38, 1.69 46.16 C3.19 36.94, 6.27 26.85, 12.13 19.84 C18 12.82, 27.4 7.13, 36.89 4.08 C46.39 1.02, 63.4 1.71, 69.1 1.51 C74.8 1.3, 71.4 1.91, 71.09 2.84 M34.25 4.93 C41.89 0.78, 54.07 -0.1, 63.19 1.22 C72.3 2.54, 81.55 7.16, 88.94 12.85 C96.34 18.55, 103.69 26.8, 107.55 35.37 C111.4 43.95, 113.05 54.99, 112.08 64.29 C111.12 73.59, 107.69 83.94, 101.77 91.17 C95.85 98.39, 85.66 104.38, 76.57 107.64 C67.48 110.89, 56.34 111.98, 47.23 110.69 C38.12 109.41, 29.29 105.34, 21.92 99.92 C14.56 94.5, 6.6 86.55, 3.05 78.18 C-0.5 69.81, -0.83 59.08, 0.63 49.71 C2.1 40.33, 6.44 29.33, 11.87 21.92 C17.29 14.51, 29.4 8.16, 33.19 5.25 C36.97 2.34, 33.82 3.99, 34.58 4.47" stroke="#1e1e1e" stroke-width="1" fill="none"></path></g><g transform="translate(696.5557383844823 428.8305916821247) rotate(0 9.631996154785156 17.5)"><text x="9.631996154785156" y="0" font-family="Virgil, Segoe UI Emoji" font-size="28px" fill="#1e1e1e" text-anchor="middle" style="white-space: pre;" direction="ltr" dominant-baseline="text-before-edge">0</text></g><g stroke-linecap="round" transform="translate(647.2857142857142 200.4285714285714) rotate(0 56 56)"><path d="M53.74 0.24 C62.65 -0.9, 74.42 1.52, 82.63 5.79 C90.84 10.07, 98.07 17.69, 103 25.89 C107.94 34.09, 111.96 45.74, 112.23 54.98 C112.51 64.23, 109.13 73.29, 104.67 81.34 C100.21 89.39, 93.19 98.08, 85.49 103.28 C77.79 108.48, 67.75 112.08, 58.45 112.52 C49.14 112.96, 38.09 110.44, 29.67 105.94 C21.24 101.44, 12.89 93.49, 7.88 85.51 C2.87 77.53, -0.06 67.45, -0.4 58.07 C-0.73 48.69, 1.33 37.63, 5.85 29.22 C10.38 20.8, 18.02 12.43, 26.74 7.58 C35.47 2.72, 52.3 1.08, 58.2 0.08 C64.11 -0.92, 62.36 0.53, 62.15 1.58 M38.81 3.71 C46.92 -0.14, 56.55 -2.17, 65.62 -0.39 C74.69 1.39, 85.96 7.94, 93.22 14.4 C100.47 20.85, 106.31 29.89, 109.14 38.36 C111.97 46.82, 112.04 56.41, 110.19 65.19 C108.35 73.97, 103.87 83.67, 98.06 91.05 C92.25 98.42, 84.16 106.2, 75.33 109.43 C66.5 112.65, 54.3 112.21, 45.08 110.4 C35.87 108.6, 27.07 104.39, 20.05 98.61 C13.02 92.82, 6.03 84.75, 2.95 75.72 C-0.12 66.68, -0.08 53.87, 1.61 44.39 C3.3 34.92, 7.11 25.66, 13.11 18.89 C19.11 12.12, 33.27 6.15, 37.62 3.79 C41.96 1.44, 38.97 4.09, 39.16 4.75" stroke="#1e1e1e" stroke-width="1" fill="none"></path></g><g transform="translate(699.393735821006 238.8305916821248) rotate(0 3.7939987182617188 17.5)"><text x="3.7939987182617188" y="0" font-family="Virgil, Segoe UI Emoji" font-size="28px" fill="#1e1e1e" text-anchor="middle" style="white-space: pre;" direction="ltr" dominant-baseline="text-before-edge">1</text></g><g stroke-linecap="round" transform="translate(463 391.42857142857133) rotate(0 56 56)"><path d="M53.44 0.93 C62.29 -0.57, 73.29 1.34, 81.59 5.35 C89.89 9.37, 98.26 16.85, 103.21 25.01 C108.17 33.17, 110.79 44.88, 111.34 54.3 C111.9 63.72, 110.63 73.22, 106.54 81.54 C102.45 89.86, 95 99.27, 86.82 104.2 C78.64 109.13, 66.78 110.94, 57.46 111.12 C48.14 111.29, 38.98 109.35, 30.91 105.26 C22.84 101.17, 14.12 94.33, 9.05 86.59 C3.97 78.85, 0.77 68.21, 0.45 58.8 C0.13 49.4, 3.01 38.51, 7.15 30.16 C11.28 21.81, 16.58 13.65, 25.25 8.7 C33.92 3.76, 52.79 1.53, 59.15 0.5 C65.51 -0.52, 63.44 1.74, 63.39 2.57 M67.01 -0.2 C75.79 0.52, 85.26 7.2, 92.41 13.19 C99.56 19.17, 106.81 26.88, 109.92 35.73 C113.03 44.58, 112.79 56.7, 111.05 66.3 C109.32 75.9, 105.49 86.16, 99.5 93.31 C93.51 100.47, 84.14 106.22, 75.11 109.22 C66.09 112.22, 54.64 113.3, 45.34 111.32 C36.05 109.34, 26.36 103.63, 19.35 97.34 C12.34 91.05, 6.47 82.24, 3.27 73.57 C0.07 64.91, -1.32 54.23, 0.15 45.35 C1.63 36.47, 6.14 27.24, 12.11 20.29 C18.08 13.33, 26.74 6.79, 35.97 3.62 C45.2 0.45, 62.41 1.58, 67.51 1.26 C72.62 0.93, 66.87 0.79, 66.61 1.66" stroke="#1e1e1e" stroke-width="1" fill="none"></path></g><g transform="translate(508.93402556361184 429.8305916821247) rotate(0 9.967994689941406 17.5)"><text x="9.967994689941406" y="0" font-family="Virgil, Segoe UI Emoji" font-size="28px" fill="#1e1e1e" text-anchor="middle" style="white-space: pre;" direction="ltr" dominant-baseline="text-before-edge">2</text></g><g stroke-linecap="round" transform="translate(649.2857142857142 10) rotate(0 56 56)"><path d="M36.56 2.49 C44.46 -1.02, 56.52 -0.25, 65.67 1.65 C74.82 3.54, 84.44 7.86, 91.46 13.86 C98.48 19.86, 104.46 29.14, 107.78 37.64 C111.1 46.15, 112.77 55.71, 111.36 64.9 C109.95 74.09, 105.44 85.42, 99.3 92.78 C93.16 100.13, 83.55 105.81, 74.53 109.03 C65.51 112.24, 54.24 113.67, 45.19 112.06 C36.14 110.46, 27.16 105.4, 20.22 99.39 C13.28 93.38, 6.67 84.78, 3.57 76 C0.46 67.21, -0.17 55.92, 1.58 46.69 C3.33 37.46, 7.02 28.31, 14.09 20.6 C21.15 12.89, 37.92 3.72, 43.98 0.44 C50.03 -2.85, 50.19 -0.13, 50.41 0.88 M77.43 3.5 C85.75 6.45, 95.16 15.29, 100.91 22.97 C106.67 30.65, 110.6 40.64, 111.95 49.57 C113.3 58.51, 112.93 67.95, 109.03 76.57 C105.12 85.19, 96.24 95.52, 88.53 101.3 C80.82 107.07, 71.93 110.28, 62.77 111.22 C53.61 112.17, 42.08 110.5, 33.55 106.96 C25.02 103.43, 16.97 97.36, 11.58 90.03 C6.18 82.69, 2.28 71.96, 1.2 62.94 C0.12 53.92, 1.58 44.68, 5.12 35.91 C8.65 27.14, 15.07 16.37, 22.4 10.31 C29.74 4.25, 39.78 0.63, 49.11 -0.45 C58.44 -1.53, 73.85 2.65, 78.39 3.84 C82.92 5.02, 76.79 5.54, 76.33 6.64" stroke="#1e1e1e" stroke-width="1" fill="none"></path></g><g transform="translate(695.6537379572362 48.40202025355336) rotate(0 9.53399658203125 17.5)"><text x="9.53399658203125" y="0" font-family="Virgil, Segoe UI Emoji" font-size="28px" fill="#1e1e1e" text-anchor="middle" style="white-space: pre;" direction="ltr" dominant-baseline="text-before-edge">3</text></g><g stroke-linecap="round" transform="translate(830 391.42857142857133) rotate(0 56 56)"><path d="M44.73 1.43 C53.3 -1.15, 65.53 0.15, 74.53 3.06 C83.53 5.98, 92.5 11.87, 98.72 18.9 C104.94 25.93, 110.11 36.01, 111.85 45.25 C113.59 54.5, 112.33 65.66, 109.15 74.39 C105.97 83.13, 99.99 91.43, 92.76 97.66 C85.54 103.89, 75.18 109.76, 65.8 111.76 C56.43 113.77, 45.38 113.01, 36.52 109.69 C27.66 106.38, 18.62 98.95, 12.65 91.87 C6.67 84.78, 2.39 76.15, 0.67 67.17 C-1.06 58.19, -0.74 46.92, 2.32 38 C5.38 29.07, 11.36 19.95, 19.02 13.61 C26.68 7.27, 43.22 2.03, 48.29 -0.06 C53.36 -2.16, 49.57 -0.01, 49.45 1.04 M61.75 -0.79 C70.43 -0.24, 81.57 6.67, 89.29 12.25 C97.01 17.84, 104.5 24.38, 108.08 32.74 C111.66 41.1, 112.15 53.12, 110.77 62.42 C109.39 71.73, 105.34 81.07, 99.82 88.59 C94.3 96.1, 86.08 103.88, 77.64 107.51 C69.2 111.14, 58.44 111.64, 49.18 110.37 C39.93 109.1, 29.46 105.34, 22.11 99.89 C14.77 94.44, 8.5 86.02, 5.1 77.66 C1.7 69.3, 0.99 58.69, 1.71 49.74 C2.43 40.8, 4.18 31.38, 9.42 23.99 C14.66 16.61, 24.33 9.56, 33.14 5.42 C41.95 1.28, 57.46 0.04, 62.29 -0.83 C67.13 -1.69, 62.51 -0.83, 62.15 0.23" stroke="#1e1e1e" stroke-width="1" fill="none"></path></g><g transform="translate(876.9420211690806 429.8305916821247) rotate(0 8.959999084472656 17.5)"><text x="8.959999084472656" y="0" font-family="Virgil, Segoe UI Emoji" font-size="28px" fill="#1e1e1e" text-anchor="middle" style="white-space: pre;" direction="ltr" dominant-baseline="text-before-edge">4</text></g><g stroke-linecap="round"><g transform="translate(88 663.4285714285713) rotate(0 605.8096421731357 -0.12027043174902019)"><path d="M-0.39 -1.2 C201.17 -1.11, 1007.85 -0.56, 1209.88 -0.55 M1.6 0.79 C203.47 1.12, 1010.37 0.9, 1212.01 0.69" stroke="#1e1e1e" stroke-width="1" fill="none"></path></g></g><mask></mask><g stroke-linecap="round"><g transform="translate(250 611.4285714285713) rotate(0 -0.6435877020185785 54.372600633706895)"><path d="M-0.06 -0.5 C-0.18 17.87, 0.29 90.83, 0.32 109.35 M-1.55 -1.8 C-1.9 16.78, -0.62 92.15, -0.46 110.55" stroke="#1e1e1e" stroke-width="1" fill="none"></path></g></g><mask></mask><g stroke-linecap="round"><g transform="translate(434 611.4285714285713) rotate(0 -0.06622102461756185 54.865590517148405)"><path d="M-0.92 0.11 C-0.91 18.61, -0.19 92.3, 0.15 110.61 M0.79 -0.88 C0.66 17.31, -0.74 90.12, -0.72 108.81" stroke="#1e1e1e" stroke-width="1" fill="none"></path></g></g><mask></mask><g stroke-linecap="round"><g transform="translate(611 611.4285714285713) rotate(0 0.14544019984782608 55.214000229146336)"><path d="M0.39 0.7 C0.48 18.94, 1.28 91.1, 1.14 109.26 M-0.87 0.02 C-0.89 18.42, 0.89 91.94, 0.79 110.41" stroke="#1e1e1e" stroke-width="1" fill="none"></path></g></g><mask></mask><g stroke-linecap="round"><g transform="translate(793 611.4285714285713) rotate(0 -0.3711496041457849 55.1044524062425)"><path d="M-0.21 0.08 C-0.18 18.41, 0.91 91.22, 1.04 109.73 M-1.78 -0.92 C-1.9 17.6, 0.32 92.74, 0.64 111.13" stroke="#1e1e1e" stroke-width="1" fill="none"></path></g></g><mask></mask><g stroke-linecap="round"><g transform="translate(91.00000000000006 611.4285714285713) rotate(0 -0.3014509495161519 54.78341931588017)"><path d="M-0.7 -0.27 C-0.79 18.2, -0.79 92.54, -0.52 111.03 M1.13 -1.46 C0.84 16.68, -1.65 91.09, -1.73 109.44" stroke="#1e1e1e" stroke-width="1" fill="none"></path></g></g><mask></mask><g transform="translate(10 647.4285714285713) rotate(0 24.905982971191406 17.5)"><text x="0" y="0" font-family="Virgil, Segoe UI Emoji" font-size="28px" fill="#1e1e1e" text-anchor="start" style="white-space: pre;" direction="ltr" dominant-baseline="text-before-edge">id[]</text></g><g transform="translate(156 615.4285714285713) rotate(0 9.631996154785156 17.5)"><text x="0" y="0" font-family="Virgil, Segoe UI Emoji" font-size="28px" fill="#1e1e1e" text-anchor="start" style="white-space: pre;" direction="ltr" dominant-baseline="text-before-edge">0</text></g><g transform="translate(340 615.4285714285713) rotate(0 3.7939987182617188 17.5)"><text x="0" y="0" font-family="Virgil, Segoe UI Emoji" font-size="28px" fill="#1e1e1e" text-anchor="start" style="white-space: pre;" direction="ltr" dominant-baseline="text-before-edge">1</text></g><g transform="translate(513 614.4285714285713) rotate(0 9.967994689941406 17.5)"><text x="0" y="0" font-family="Virgil, Segoe UI Emoji" font-size="28px" fill="#1e1e1e" text-anchor="start" style="white-space: pre;" direction="ltr" dominant-baseline="text-before-edge">2</text></g><g transform="translate(694 614.4285714285713) rotate(0 9.53399658203125 17.5)"><text x="0" y="0" font-family="Virgil, Segoe UI Emoji" font-size="28px" fill="#1e1e1e" text-anchor="start" style="white-space: pre;" direction="ltr" dominant-baseline="text-before-edge">3</text></g><g transform="translate(877 614.4285714285713) rotate(0 8.959999084472656 17.5)"><text x="0" y="0" font-family="Virgil, Segoe UI Emoji" font-size="28px" fill="#1e1e1e" text-anchor="start" style="white-space: pre;" direction="ltr" dominant-baseline="text-before-edge">4</text></g><g transform="translate(163 678.4285714285713) rotate(0 3.7939987182617188 17.5)"><text x="0" y="0" font-family="Virgil, Segoe UI Emoji" font-size="28px" fill="#1e1e1e" text-anchor="start" style="white-space: pre;" direction="ltr" dominant-baseline="text-before-edge">1</text></g><g transform="translate(336.2857142857142 677.4285714285713) rotate(0 9.53399658203125 17.5)"><text x="0" y="0" font-family="Virgil, Segoe UI Emoji" font-size="28px" fill="#1e1e1e" text-anchor="start" style="white-space: pre;" direction="ltr" dominant-baseline="text-before-edge">3</text></g><g transform="translate(515 676.4285714285713) rotate(0 9.967994689941406 17.5)"><text x="0" y="0" font-family="Virgil, Segoe UI Emoji" font-size="28px" fill="#1e1e1e" text-anchor="start" style="white-space: pre;" direction="ltr" dominant-baseline="text-before-edge">2</text></g><g transform="translate(695 676.4285714285713) rotate(0 9.53399658203125 17.5)"><text x="0" y="0" font-family="Virgil, Segoe UI Emoji" font-size="28px" fill="#1e1e1e" text-anchor="start" style="white-space: pre;" direction="ltr" dominant-baseline="text-before-edge">3</text></g><g transform="translate(879 676.4285714285713) rotate(0 8.959999084472656 17.5)"><text x="0" y="0" font-family="Virgil, Segoe UI Emoji" font-size="28px" fill="#1e1e1e" text-anchor="start" style="white-space: pre;" direction="ltr" dominant-baseline="text-before-edge">4</text></g><g stroke-linecap="round" transform="translate(1006.8571428571429 391.42857142857133) rotate(0 56 56)"><path d="M72.62 2.53 C81.11 4.53, 89.52 11.53, 95.94 18.3 C102.37 25.07, 108.93 34.06, 111.15 43.17 C113.37 52.28, 111.94 63.93, 109.27 72.97 C106.61 82.02, 102.09 91.19, 95.17 97.44 C88.26 103.7, 76.93 108.53, 67.78 110.5 C58.63 112.46, 49.15 111.79, 40.27 109.22 C31.39 106.66, 20.84 101.78, 14.5 95.1 C8.16 88.41, 4.38 78.48, 2.22 69.11 C0.07 59.75, -0.94 48.07, 1.6 38.92 C4.14 29.77, 10.45 20.56, 17.48 14.21 C24.51 7.86, 33.97 2.55, 43.77 0.83 C53.57 -0.9, 70.23 2.95, 76.3 3.83 C82.36 4.71, 80.28 5.22, 80.16 6.09 M58.83 0.01 C67.42 -0.47, 77.85 4, 85.69 9.22 C93.54 14.45, 101.69 22.85, 105.91 31.34 C110.14 39.84, 111.58 51.11, 111.03 60.19 C110.48 69.28, 107.61 78.45, 102.61 85.85 C97.62 93.25, 89.37 100.18, 81.05 104.58 C72.73 108.97, 61.92 112.73, 52.7 112.23 C43.47 111.72, 33.36 106.75, 25.7 101.57 C18.05 96.38, 11.14 89.31, 6.77 81.13 C2.41 72.95, -0.67 61.99, -0.47 52.5 C-0.28 43.01, 2.82 32.02, 7.93 24.19 C13.04 16.36, 21.81 9.71, 30.19 5.52 C38.58 1.34, 53.61 -0.41, 58.23 -0.93 C62.85 -1.45, 57.98 1.55, 57.91 2.4" stroke="#1e1e1e" stroke-width="1" fill="none"></path></g><g transform="translate(1054.10716268345 429.8305916821247) rotate(0 8.652000427246094 17.5)"><text x="8.652000427246094" y="0" font-family="Virgil, Segoe UI Emoji" font-size="28px" fill="#1e1e1e" text-anchor="middle" style="white-space: pre;" direction="ltr" dominant-baseline="text-before-edge">5</text></g><g stroke-linecap="round" transform="translate(1006.2857142857144 198.5714285714285) rotate(0 56 56)"><path d="M35.36 5.08 C43.28 1.01, 54.08 -0.09, 63.21 0.86 C72.33 1.8, 82.68 5.1, 90.12 10.72 C97.55 16.34, 104.23 25.92, 107.82 34.58 C111.4 43.24, 112.93 53.52, 111.64 62.68 C110.36 71.83, 105.65 82.11, 100.12 89.5 C94.59 96.9, 87.14 103.47, 78.48 107.05 C69.83 110.63, 57.51 111.96, 48.19 110.96 C38.87 109.95, 29.76 106.57, 22.56 101.02 C15.35 95.47, 8.69 86.43, 4.97 77.65 C1.24 68.87, -0.88 57.58, 0.22 48.35 C1.32 39.11, 5.65 29.55, 11.56 22.22 C17.47 14.9, 31.03 7.49, 35.67 4.4 C40.31 1.3, 38.86 2.94, 39.4 3.65 M69.39 2.46 C78.47 3.77, 88.52 10.16, 95.49 16.7 C102.46 23.23, 108.86 32.86, 111.2 41.66 C113.53 50.46, 112.22 60.73, 109.49 69.47 C106.76 78.21, 101.16 87.45, 94.82 94.1 C88.48 100.75, 80.37 106.52, 71.43 109.35 C62.5 112.18, 50.25 113.1, 41.22 111.1 C32.18 109.09, 23.69 103.91, 17.23 97.3 C10.76 90.68, 5.27 80.41, 2.44 71.43 C-0.38 62.45, -1.87 52.61, 0.27 43.42 C2.41 34.22, 8.41 23.35, 15.31 16.25 C22.2 9.16, 32.74 3.12, 41.62 0.85 C50.51 -1.41, 63.97 2.22, 68.61 2.66 C73.26 3.1, 69.65 2.53, 69.49 3.48" stroke="#1e1e1e" stroke-width="1" fill="none"></path></g><g transform="translate(1053.227735454795 236.97344882498186) rotate(0 8.959999084472656 17.5)"><text x="8.959999084472656" y="0" font-family="Virgil, Segoe UI Emoji" font-size="28px" fill="#1e1e1e" text-anchor="middle" style="white-space: pre;" direction="ltr" dominant-baseline="text-before-edge">6</text></g><g stroke-linecap="round"><g transform="translate(979 611.4285714285713) rotate(0 0.09456426122881112 55.32676645984873)"><path d="M0.65 0.86 C0.73 19.02, 0.73 91.23, 0.46 109.24 M-0.47 0.27 C-0.51 18.53, -0.57 92.15, -0.25 110.39" stroke="#1e1e1e" stroke-width="1" fill="none"></path></g></g><mask></mask><g stroke-linecap="round"><g transform="translate(1153 611.4285714285713) rotate(0 -0.3603309406992139 55.21005119211037)"><path d="M0.65 0.61 C0.42 18.87, -0.16 92.49, -0.27 110.54 M-0.47 -0.12 C-0.97 17.7, -1.31 90.41, -1.37 108.71" stroke="#1e1e1e" stroke-width="1" fill="none"></path></g></g><mask></mask><g transform="translate(1057 614.4285714285713) rotate(0 8.652000427246094 17.5)"><text x="0" y="0" font-family="Virgil, Segoe UI Emoji" font-size="28px" fill="#1e1e1e" text-anchor="start" style="white-space: pre;" direction="ltr" dominant-baseline="text-before-edge">5</text></g><g transform="translate(1058 676.4285714285713) rotate(0 8.959999084472656 17.5)"><text x="0" y="0" font-family="Virgil, Segoe UI Emoji" font-size="28px" fill="#1e1e1e" text-anchor="start" style="white-space: pre;" direction="ltr" dominant-baseline="text-before-edge">6</text></g><g transform="translate(1226 614.4285714285713) rotate(0 8.959999084472656 17.5)"><text x="0" y="0" font-family="Virgil, Segoe UI Emoji" font-size="28px" fill="#1e1e1e" text-anchor="start" style="white-space: pre;" direction="ltr" dominant-baseline="text-before-edge">6</text></g><g transform="translate(1228 676.4285714285713) rotate(0 9.53399658203125 17.5)"><text x="0" y="0" font-family="Virgil, Segoe UI Emoji" font-size="28px" fill="#e03131" text-anchor="start" style="white-space: pre;" direction="ltr" dominant-baseline="text-before-edge">3</text></g><g transform="translate(887.1428571428569 38.71428571428544) rotate(0 71.27396392822266 17.5)"><text x="0" y="0" font-family="Virgil, Segoe UI Emoji" font-size="28px" fill="#e03131" text-anchor="start" style="white-space: pre;" direction="ltr" dominant-baseline="text-before-edge">union(5, 0)</text></g><g stroke-linecap="round"><g transform="translate(1244.142857142857 831.7142857142856) rotate(0 -0.1943033004552035 -49.57831533215938)"><path d="M-0.59 0.52 C-0.53 -15.72, -0.67 -81.53, -0.49 -98.05 M1.31 -0.25 C1.23 -16.76, -1.48 -82.93, -1.7 -99.68" stroke="#e03131" stroke-width="1" fill="none"></path></g><g transform="translate(1244.142857142857 831.7142857142856) rotate(0 -0.1943033004552035 -49.57831533215938)"><path d="M10.23 -72.61 C8.51 -77.47, 5.01 -84.68, -0.45 -99.82 M8.84 -72.25 C4.58 -81.89, 1.73 -91.39, -0.74 -99.61" stroke="#e03131" stroke-width="1" fill="none"></path></g><g transform="translate(1244.142857142857 831.7142857142856) rotate(0 -0.1943033004552035 -49.57831533215938)"><path d="M-10.29 -72.02 C-7.23 -76.92, -5.97 -84.27, -0.45 -99.82 M-11.67 -71.66 C-8.94 -81.46, -4.8 -91.16, -0.74 -99.61" stroke="#e03131" stroke-width="1" fill="none"></path></g></g><mask></mask><g stroke-linecap="round"><g transform="translate(705.2857142857142 311.42857142857133) rotate(0 0.7899913383462263 39.09276568851436)"><path d="M0.71 -0.2 C0.5 13.21, -0.07 66.32, -0.15 79.53 M-0.38 -1.35 C-0.32 11.78, 1.44 64.06, 1.96 77.69" stroke="#e03131" stroke-width="1" fill="none"></path></g></g><mask></mask><g stroke-linecap="round"><g transform="translate(705.2857142857142 121.42857142857142) rotate(0 -0.10717535258413591 39.839419661071155)"><path d="M0.02 1.12 C0.05 14, 0.89 64.98, 1.23 78 M-1.42 0.66 C-1.63 13.6, -0.15 65.68, 0.4 79.02" stroke="#e03131" stroke-width="1" fill="none"></path></g></g><mask></mask><g stroke-linecap="round"><g transform="translate(1058.142857142857 311.42857142857133) rotate(0 0.5147311039619353 39.857497133230794)"><path d="M-0.37 0.49 C-0.16 13.73, 0.34 66.98, 0.57 80.01 M1.63 -0.3 C1.71 12.57, -0.38 65.07, -0.6 78.42" stroke="#e03131" stroke-width="1" fill="none"></path></g></g><mask></mask><g stroke-linecap="round"><g transform="translate(762 63.5714285714285) rotate(0 120.55848634585607 92.00154367459805)"><path d="M0.06 1.18 C40.54 31.54, 201.86 152.82, 242.49 183.25 M-1.37 0.75 C38.95 31.26, 200.53 151.14, 241.35 181.34" stroke="#e03131" stroke-width="1" fill="none"></path></g></g><mask></mask></svg>